<?xml version="1.0" encoding="utf-8"?>
<!-- Generator: Adobe Illustrator 24.2.0, SVG Export Plug-In . SVG Version: 6.00 Build 0)  -->
<svg version="1.1" id="Layer_1" xmlns="http://www.w3.org/2000/svg" xmlns:xlink="http://www.w3.org/1999/xlink" x="0px" y="0px"
	 viewBox="55 110 290 165" style="enable-background:new 55 110 290 165;" xml:space="preserve">
<style type="text/css">
	.st0{clip-path:url(#SVGID_2_);fill:#005AAB;}
	.st1{clip-path:url(#SVGID_2_);fill:#FFB81A;}
	.st2{clip-path:url(#SVGID_2_);fill:#EB2A2E;}
	.st3{clip-path:url(#SVGID_4_);fill:#1D252B;}
</style>
<g>
	<defs>
		<rect id="SVGID_1_" x="149.56" y="115.35" width="103.66" height="97"/>
	</defs>
	<clipPath id="SVGID_2_">
		<use xlink:href="#SVGID_1_"  style="overflow:visible;"/>
	</clipPath>
	<path class="st0" d="M195.45,126.73l-15.59,77.97c-0.89,4.45-4.79,7.65-9.33,7.65c-6,0-10.5-5.49-9.33-11.38l15.59-77.97
		c0.89-4.45,4.79-7.65,9.33-7.65C192.12,115.35,196.63,120.84,195.45,126.73"/>
	<path class="st0" d="M239.1,150.98l-10.75,53.72c-0.89,4.45-4.79,7.65-9.33,7.65c-6,0-10.5-5.49-9.33-11.38l10.74-53.72
		c0.89-4.45,4.79-7.65,9.33-7.65C235.77,139.6,240.27,145.09,239.1,150.98"/>
	<path class="st1" d="M253.22,202.65c0,5.36-4.34,9.7-9.7,9.7c-5.36,0-9.7-4.34-9.7-9.7c0-5.36,4.34-9.7,9.7-9.7
		C248.88,192.95,253.22,197.29,253.22,202.65"/>
	<path class="st2" d="M244.33,125.08c0,5.36-4.34,9.7-9.7,9.7c-5.36,0-9.7-4.34-9.7-9.7c0-5.36,4.34-9.7,9.7-9.7
		C239.98,115.38,244.33,119.72,244.33,125.08"/>
	<path class="st2" d="M158.96,154.15h43.65c6,0,10.5,5.49,9.33,11.38l-0.08,0.38c-0.89,4.45-4.79,7.65-9.33,7.65h-43.65
		c-6,0-10.5-5.49-9.33-11.38l0.08-0.38C150.53,157.35,154.43,154.15,158.96,154.15"/>
</g>
<g>
	<defs>
		<rect id="SVGID_3_" x="57.59" y="231.84" width="287.41" height="37.96"/>
	</defs>
	<clipPath id="SVGID_4_">
		<use xlink:href="#SVGID_3_"  style="overflow:visible;"/>
	</clipPath>
	<path class="st3" d="M65.9,265.69c-0.16,1.14-0.74,2.16-1.66,2.94c-1.8,1.53-4.47,1.52-5.81-0.03c-0.67-0.78-0.94-1.79-0.78-2.91
		l4.17-29.7c0.16-1.11,0.7-2.11,1.57-2.91c1.79-1.62,4.51-1.62,5.88-0.03c0.69,0.8,0.97,1.82,0.81,2.94L65.9,265.69z"/>
	<path class="st3" d="M88.52,265.69c-0.16,1.14-0.74,2.16-1.66,2.94c-1.8,1.53-4.47,1.52-5.81-0.03c-0.67-0.78-0.94-1.79-0.78-2.91
		l4.17-29.7c0.16-1.11,0.7-2.11,1.57-2.91c1.79-1.62,4.51-1.62,5.88-0.03c0.69,0.8,0.97,1.82,0.81,2.94L88.52,265.69z"/>
	<path class="st3" d="M76.75,246.68c1.14,0,2.1,0.43,2.77,1.25c1.3,1.59,0.93,4.26-0.85,5.82c-0.89,0.78-1.96,1.19-3.08,1.19H63.28
		c-1.11,0-2.06-0.4-2.75-1.16c-1.4-1.57-1.02-4.29,0.8-5.88c0.91-0.8,1.99-1.22,3.11-1.22H76.75z"/>
	<path class="st3" d="M116.84,269.55h-19.3c-1.13,0-2.08-0.41-2.74-1.19c-0.67-0.78-0.94-1.79-0.78-2.91l4.11-29.21
		c0.16-1.11,0.7-2.12,1.58-2.92c0.9-0.81,1.97-1.24,3.11-1.24h19.3c1.09,0,2.02,0.41,2.68,1.17c0.66,0.76,0.93,1.74,0.77,2.84
		c-0.16,1.11-0.71,2.09-1.6,2.84c-0.87,0.74-1.9,1.12-2.97,1.12h-15.14l-0.95,6.75h13.41c1.08,0,2.01,0.4,2.67,1.16
		c0.66,0.77,0.93,1.76,0.78,2.85c-0.16,1.11-0.71,2.09-1.61,2.84c-0.86,0.73-1.89,1.12-2.96,1.12h-13.41l-0.96,6.8h15.14
		c1.09,0,2.01,0.41,2.68,1.18c0.66,0.76,0.93,1.74,0.77,2.84c-0.16,1.1-0.71,2.09-1.6,2.84
		C118.94,269.17,117.92,269.55,116.84,269.55"/>
	<path class="st3" d="M153.32,269.8c-1.32,0-2.41-0.61-3.06-1.71l-7.18-10.96l-10.2,11.05c-1.3,1.34-2.58,1.62-3.44,1.62
		c-1.06,0-1.97-0.41-2.63-1.17l-0.01-0.01c-0.65-0.77-0.92-1.73-0.77-2.78c0.13-0.93,0.54-1.8,1.18-2.52l11.93-12.5l-8.29-12.35
		c-0.48-0.79-0.64-1.64-0.51-2.57c0.16-1.12,0.7-2.12,1.58-2.89c1.37-1.21,3.36-1.52,4.86-0.73c0.56,0.31,0.99,0.71,1.29,1.2
		l7.06,10.92l10.18-11.04c1.39-1.7,4.51-2.05,6.01-0.37c0.69,0.77,0.97,1.76,0.82,2.87c-0.12,0.85-0.49,1.66-1.08,2.34l-11.96,12.58
		l8.38,12.45c0.46,0.61,0.66,1.49,0.52,2.48c-0.16,1.11-0.69,2.11-1.55,2.89C155.57,269.38,154.49,269.8,153.32,269.8"/>
	<path class="st3" d="M191.09,269.8c-0.82,0-1.56-0.22-2.19-0.67c-0.63-0.46-1.06-1.06-1.3-1.81l-1.76-6.38h-13.78l-3.52,6.31
		c-0.48,0.81-1.08,1.41-1.83,1.86c-1.85,1.1-4.06,0.83-5.18-0.54l0,0c-0.63-0.78-0.89-1.77-0.73-2.88c0.07-0.52,0.28-1.08,0.63-1.71
		l16.35-28.99c0.52-0.89,1.17-1.62,1.97-2.18c0.9-0.65,1.93-0.97,3.06-0.97h0.48c1.12,0,2.05,0.33,2.78,0.97
		c0.64,0.58,1.09,1.3,1.35,2.16l8.21,29c0.18,0.64,0.23,1.2,0.15,1.72c-0.16,1.11-0.69,2.1-1.54,2.88
		C193.34,269.38,192.26,269.8,191.09,269.8 M176.48,253.06h7.18l-2.37-8.64L176.48,253.06z"/>
	<path class="st3" d="M228.48,269.8c-1.06,0-2.03-0.35-2.79-1c-0.77-0.65-1.24-1.51-1.41-2.54l-3.27-18.66l-8.52,18.68
		c-0.45,1.02-1.17,1.87-2.12,2.53c-1.92,1.32-4.32,1.29-5.8,0.06c-0.72-0.6-1.21-1.44-1.45-2.5l-5.37-29.05
		c-0.08-0.59-0.09-1.03-0.04-1.41c0.09-1.06,0.62-2.09,1.53-2.89c1.58-1.4,4.14-1.58,5.56-0.23c0.59,0.55,0.97,1.28,1.12,2.16
		l3.36,20.51l9.14-20.4c0.4-0.92,1.09-1.73,1.97-2.32c1.78-1.17,3.98-1.16,5.42,0c0.73,0.59,1.19,1.4,1.33,2.35l3.4,20.38l9.12-20.5
		c0.4-0.89,0.99-1.62,1.75-2.18c1.75-1.32,4.29-1.16,5.49,0.25c0.68,0.79,0.92,1.83,0.69,2.99c-0.03,0.28-0.17,0.72-0.39,1.23
		l-13.54,29.05c-0.57,1.13-1.29,1.97-2.17,2.57C230.54,269.48,229.54,269.8,228.48,269.8"/>
	<path class="st3" d="M271.24,269.8c-0.82,0-1.56-0.22-2.19-0.67c-0.63-0.46-1.06-1.06-1.3-1.81l-1.76-6.38h-13.77l-3.52,6.31
		c-0.48,0.81-1.08,1.41-1.83,1.86c-1.85,1.1-4.06,0.83-5.18-0.54l0,0c-0.63-0.78-0.89-1.77-0.73-2.88c0.07-0.52,0.28-1.08,0.63-1.71
		l16.35-28.99c0.52-0.89,1.17-1.62,1.97-2.18c0.91-0.65,1.94-0.97,3.06-0.97h0.48c1.12,0,2.05,0.33,2.78,0.97
		c0.64,0.58,1.09,1.3,1.35,2.16l8.21,29c0.18,0.64,0.23,1.2,0.15,1.72c-0.16,1.11-0.69,2.1-1.54,2.88
		C273.48,269.38,272.4,269.8,271.24,269.8 M256.62,253.06h7.18l-2.37-8.64L256.62,253.06z"/>
	<path class="st3" d="M304.78,269.8c-1.32,0-2.4-0.61-3.06-1.71l-12.14-19.17l9.68-0.09l9.68,14.39c0.31,0.39,0.7,1.22,0.52,2.48
		c-0.16,1.11-0.69,2.1-1.54,2.88C307.04,269.38,305.95,269.8,304.78,269.8"/>
	<path class="st3" d="M282.64,269.8c-1.12,0-2.07-0.41-2.74-1.2c-0.67-0.78-0.94-1.79-0.78-2.91l4.14-29.46
		c0.16-1.11,0.7-2.12,1.58-2.92c0.9-0.81,1.97-1.24,3.11-1.24h11.21c4.8,0,8.37,1.05,10.61,3.14c2.34,2.17,3.27,5.06,2.78,8.58
		c-0.42,2.97-2.8,12.67-15.85,12.67h-8.02l-1.3,9.23c-0.16,1.14-0.73,2.15-1.65,2.94C284.82,269.39,283.76,269.8,282.64,269.8
		 M289.8,248.44h6.77c2.36,0,4.26-0.44,5.67-1.3c1.19-0.73,1.8-1.66,1.99-3.01c0.18-1.3-0.1-2.21-0.9-2.86
		c-0.65-0.53-2.18-1.16-5.83-1.16h-6.53L289.8,248.44z"/>
	<path class="st3" d="M336.25,269.55h-19.3c-1.13,0-2.08-0.41-2.75-1.2c-0.66-0.78-0.93-1.79-0.77-2.9l4.11-29.21
		c0.16-1.11,0.7-2.12,1.57-2.91c0.9-0.82,1.98-1.25,3.12-1.25h19.3c1.09,0,2.02,0.41,2.68,1.17c0.66,0.75,0.92,1.74,0.77,2.84
		c-0.16,1.11-0.71,2.09-1.6,2.84c-0.87,0.74-1.9,1.12-2.97,1.12h-15.15l-0.95,6.75h13.41c1.08,0,2.01,0.4,2.67,1.16
		c0.66,0.77,0.93,1.76,0.78,2.85c-0.16,1.11-0.71,2.09-1.61,2.84c-0.86,0.73-1.89,1.12-2.96,1.12h-13.41l-0.96,6.8h15.15
		c1.09,0,2.01,0.41,2.68,1.18c0.66,0.76,0.92,1.74,0.77,2.84c-0.16,1.11-0.71,2.09-1.59,2.84
		C338.34,269.17,337.32,269.55,336.25,269.55"/>
</g>
</svg>
