<?xml version="1.0" encoding="UTF-8" standalone="no"?>
<!-- Created with Inkscape (http://www.inkscape.org/) -->

<svg
   xmlns:dc="http://purl.org/dc/elements/1.1/"
   xmlns:cc="http://creativecommons.org/ns#"
   xmlns:rdf="http://www.w3.org/1999/02/22-rdf-syntax-ns#"
   xmlns:svg="http://www.w3.org/2000/svg"
   xmlns="http://www.w3.org/2000/svg"
   xmlns:sodipodi="http://sodipodi.sourceforge.net/DTD/sodipodi-0.dtd"
   xmlns:inkscape="http://www.inkscape.org/namespaces/inkscape"
   width="256.19977"
   height="52.235481"
   viewBox="0 0 67.786189 13.820637"
   version="1.1"
   id="svg41140"
   inkscape:version="0.92.0 r15299"
   sodipodi:docname="mindtree.svg">
  <defs
     id="defs41134">
    <clipPath
       id="clipPath40740"
       clipPathUnits="userSpaceOnUse">
      <path
         inkscape:connector-curvature="0"
         id="path40738"
         d="M 28.346,7.136 H 586.771 V 789.658 H 28.346 Z" />
    </clipPath>
    <radialGradient
       id="radialGradient40730"
       spreadMethod="pad"
       gradientTransform="matrix(-6.346096,6.346096,6.346096,6.346096,-13.707122,142.61559)"
       gradientUnits="userSpaceOnUse"
       r="1"
       cy="0"
       cx="0"
       fy="0"
       fx="0">
      <stop
         id="stop40724"
         offset="0"
         style="stop-opacity:1;stop-color:#f3681f" />
      <stop
         id="stop40726"
         offset="0.55"
         style="stop-opacity:1;stop-color:#d5068d" />
      <stop
         id="stop40728"
         offset="1"
         style="stop-opacity:1;stop-color:#632489" />
    </radialGradient>
    <clipPath
       id="clipPath40706"
       clipPathUnits="userSpaceOnUse">
      <path
         inkscape:connector-curvature="0"
         id="path40704"
         d="M 28.346,7.136 H 586.771 V 789.658 H 28.346 Z" />
    </clipPath>
  </defs>
  <sodipodi:namedview
     id="base"
     pagecolor="#ffffff"
     bordercolor="#666666"
     borderopacity="1.0"
     inkscape:pageopacity="0.0"
     inkscape:pageshadow="2"
     inkscape:zoom="3.528721"
     inkscape:cx="127.09987"
     inkscape:cy="25.117739"
     inkscape:document-units="mm"
     inkscape:current-layer="layer1"
     showgrid="false"
     fit-margin-top="0"
     fit-margin-left="0"
     fit-margin-right="0"
     fit-margin-bottom="0"
     units="px"
     inkscape:window-width="1280"
     inkscape:window-height="744"
     inkscape:window-x="-4"
     inkscape:window-y="-4"
     inkscape:window-maximized="1" />
  <metadata
     id="metadata41137">
    <rdf:RDF>
      <cc:Work
         rdf:about="">
        <dc:format>image/svg+xml</dc:format>
        <dc:type
           rdf:resource="http://purl.org/dc/dcmitype/StillImage" />
        <dc:title></dc:title>
      </cc:Work>
    </rdf:RDF>
  </metadata>
  <g
     inkscape:label="Layer 1"
     inkscape:groupmode="layer"
     id="layer1"
     transform="translate(21.155282,-141.65877)">
    <path
       inkscape:connector-curvature="0"
       id="path40710"
       style="fill:#696566;fill-opacity:1;fill-rule:nonzero;stroke:none;stroke-width:0.35277778"
       d="m 8.319453,145.38818 c -0.1718028,0 -0.2959805,0.0882 -0.3072694,0.22825 -0.012347,0.15416 0.053975,0.2099 0.1876777,0.29104 0.1008945,0.061 0.1552223,0.20743 0.1552223,0.40887 v 2.40806 c 0,0.17074 0.1435805,0.31432 0.3146777,0.31432 0.1749778,0 0.3139722,-0.1397 0.3139722,-0.31432 0,-0.70944 -0.00388,-1.41958 0,-2.12901 0,-0.0296 0.043039,-0.15805 0.056797,-0.19156 0.1315861,-0.32703 0.3972277,-0.45826 0.7358944,-0.45826 0.1255889,0 0.2363611,0.0152 0.3577171,0.043 0.02752,0.006 0.05433,0.0102 0.08255,0.0102 0.171097,0 0.294569,-0.1524 0.294569,-0.3168 0,-0.31009 -0.398639,-0.3369 -0.6272389,-0.3369 -0.4081639,0 -0.7468305,0.15381 -0.9860139,0.49318 -0.088194,-0.24553 -0.2980972,-0.45014 -0.5785555,-0.45014 m -0.9856611,3.60751 c 0.1566333,0 0.28575,-0.12947 0.28575,-0.2854 0,-0.15699 -0.1291167,-0.2861 -0.28575,-0.2861 H 7.1912697 c -0.6618111,0 -0.6932083,-0.42263 -0.6932083,-0.97861 v -1.52153 h 0.8357305 c 0.1453445,0 0.2716389,-0.11748 0.2716389,-0.26423 0,-0.14958 -0.1220611,-0.27164 -0.2716389,-0.27164 H 6.4980614 v -0.73554 c 0,-0.17004 -0.1347611,-0.31433 -0.3072695,-0.31433 -0.1703916,0 -0.3139722,0.14358 -0.3139722,0.31433 v 0.73554 H 5.5836614 c -0.1495778,0 -0.2716389,0.12206 -0.2716389,0.27164 0,0.14675 0.1266472,0.26423 0.2716389,0.26423 h 0.2931583 v 1.52859 c 0,0.89005 0.2310695,1.54305 1.2431889,1.54305 z m -3.3429218,-2.77877 c -0.1880306,-0.19367 -0.4702528,-0.32843 -0.7433028,-0.32843 -0.6014861,0 -0.7641166,0.43462 -0.7641166,0.96414 v 0.77893 c 0,0.55245 0.1919111,0.86431 0.7789333,0.86431 0.2656416,0 0.5312833,-0.12806 0.7284861,-0.30057 z m 0.6360583,2.82187 c -0.2028472,0 -0.4173361,-0.1397 -0.5150556,-0.31432 -0.2649361,0.20249 -0.6014861,0.31432 -0.9352138,0.31432 -0.9472083,0 -1.3215056,-0.54398 -1.3215056,-1.44286 v -0.65052 c 0,-0.87736 0.2808111,-1.6002 1.2784667,-1.6002 0.3030361,0 0.6138333,0.097 0.85725,0.27905 v -1.49366 c 0,-0.17533 0.1411111,-0.30692 0.314325,-0.30692 0.1710972,0 0.3069166,0.13617 0.3069166,0.30692 v 3.97968 c 0,0.57891 0.3217333,0.34573 0.3217333,0.65688 0,0.1852 -0.1351138,0.27163 -0.3069166,0.27163 M 0.96932818,148.7244 v -2.07151 c 0,-0.80081 -0.31009166,-1.30775 -1.17122219,-1.30775 -0.4191,0 -0.82338329,0.11254 -1.11477779,0.42863 -0.091369,-0.22014 -0.2966861,-0.38559 -0.5425722,-0.38559 -0.1721555,0 -0.2959805,0.0882 -0.3069167,0.22825 -0.0127,0.15416 0.053622,0.2099 0.187325,0.29104 0.1008945,0.061 0.155575,0.20743 0.155575,0.40887 v 2.40806 c 0,0.17074 0.1432278,0.31432 0.3139723,0.31432 0.1746249,0 0.3143249,-0.1397 0.3143249,-0.31432 v -2.3361 c 0.180975,-0.31256 0.51399727,-0.44979 0.8643056,-0.44979 0.5284611,0 0.67839165,0.28646 0.67839165,0.77153 v 2.01436 c 0,0.17321 0.13158611,0.31432 0.30726944,0.31432 0.17850555,0 0.31432499,-0.13617 0.31432499,-0.31432 m -3.90666108,0 v -3.06458 c 0,-0.17498 -0.1397,-0.31468 -0.3146777,-0.31468 -0.1725084,0 -0.3072695,0.14464 -0.3072695,0.31468 v 3.06458 c 0,0.17321 0.1315861,0.31432 0.3072695,0.31432 0.1781527,0 0.3146777,-0.13617 0.3146777,-0.31432 m 0.056797,-4.51485 c 0,-0.20426 -0.1693334,-0.36442 -0.371475,-0.36442 -0.200025,0 -0.3644195,0.16475 -0.3644195,0.36442 0,0.19967 0.1643945,0.36442 0.3644195,0.36442 0.2024944,0 0.371475,-0.16016 0.371475,-0.36442 m -1.7776472,-0.20708 c 0,-0.17216 -0.1379361,-0.30021 -0.3076222,-0.30021 -0.136525,0 -0.2395361,0.0519 -0.3002139,0.17885 l -1.5998472,3.35774 -1.5934972,-3.34363 c -0.064558,-0.13581 -0.1654528,-0.19296 -0.314325,-0.19296 -0.1732139,0 -0.3069166,0.12417 -0.3069166,0.30021 v 4.7431 c 0,0.16051 0.1329972,0.29315 0.2928055,0.29315 0.15875,0 0.3002139,-0.13123 0.3002139,-0.29315 v -3.6001 l 1.3215055,2.8074 c 0.053975,0.11501 0.1658056,0.18592 0.2924528,0.18592 0.1273528,0 0.2391833,-0.0709 0.2931583,-0.18592 l 1.3218583,-2.81481 v 3.6008 c 0,0.16369 0.1361722,0.29986 0.2995083,0.29986 0.1640417,0 0.3009195,-0.13617 0.3009195,-0.29986 z m 21.0121501,2.76437 c 0,-0.5394 -0.187678,-0.90735 -0.778933,-0.90735 -0.546806,0 -0.799395,0.43004 -0.799395,0.96485 v 0.0639 h 1.578328 z m 0.60713,0.37147 c 0,0.13794 -0.09596,0.24271 -0.235655,0.24271 h -1.949803 v 0.0991 c 0,0.57962 0.226483,1.02306 0.807156,1.02306 0.347839,0 0.580672,-0.054 0.892527,-0.20038 0.03457,-0.0162 0.06738,-0.0268 0.106539,-0.0268 0.149225,0 0.249414,0.1397 0.249414,0.27905 0,0.10724 -0.05398,0.17321 -0.141816,0.22648 -0.310445,0.18803 -0.77082,0.25717 -1.128889,0.25717 -0.951089,0 -1.407231,-0.66533 -1.407231,-1.57162 v -0.55033 c 0,-0.89147 0.473428,-1.57163 1.407231,-1.57163 0.956027,0 1.400527,0.58914 1.400527,1.50036 z m -4.098924,-0.37147 c 0,-0.5394 -0.187678,-0.90735 -0.778581,-0.90735 -0.547158,0 -0.800453,0.43004 -0.800453,0.96485 v 0.0639 h 1.579034 z m 0.606777,0.37147 c 0,0.13794 -0.0956,0.24271 -0.235655,0.24271 h -1.950156 v 0.0991 c 0,0.57962 0.227542,1.02306 0.807156,1.02306 0.347839,0 0.582083,-0.054 0.89288,-0.20038 0.03492,-0.0162 0.06773,-0.0268 0.106892,-0.0268 0.149225,0 0.250119,0.1397 0.250119,0.27905 0,0.10724 -0.05468,0.17321 -0.142875,0.22648 -0.310444,0.18803 -0.770113,0.25717 -1.128536,0.25717 -0.950736,0 -1.40723,-0.66533 -1.40723,-1.57162 v -0.55033 c 0,-0.89147 0.473075,-1.57163 1.40723,-1.57163 0.955323,0 1.400175,0.58914 1.400175,1.50036 z" />
    <path
       d="m -16.418912,142.16101 c 0.0071,0.0699 0.06738,0.0974 0.125942,0.10336 v 0 c 0.140758,0.0141 0.502003,-0.0705 0.496358,-0.23495 v 0 c -0.0032,-0.0748 -0.06773,-0.0974 -0.126294,-0.10407 v 0 c -0.01235,-7e-4 -0.02611,-0.002 -0.04022,-0.002 v 0 c -0.177447,0 -0.469547,0.10372 -0.455789,0.23778 m -1.271058,-0.127 c -0.123825,3.5e-4 -0.25788,0.0621 -0.297039,0.1464 v 0 c -0.0085,0.0187 -0.01729,0.049 -0.0046,0.0765 v 0 c 0.0127,0.0261 0.03457,0.0339 0.06174,0.0392 v 0 c 0.09631,0.0183 0.259645,-0.0392 0.316795,-0.12665 v 0 c 0.01658,-0.0243 0.02893,-0.0561 0.01658,-0.0878 v 0 c -0.0092,-0.0222 -0.03986,-0.0476 -0.09278,-0.0476 v 0 z m 2.787297,0.4004 c -0.0049,0.079 0.09455,0.10654 0.155928,0.11077 v 0 c 0.117828,0.01 0.383822,-0.0596 0.394406,-0.20496 v 0 c 0.0063,-0.0797 -0.0949,-0.10654 -0.156281,-0.11148 v 0 c -0.0071,-3.5e-4 -0.01446,-7.1e-4 -0.02223,-7.1e-4 v 0 c -0.125942,0 -0.361597,0.0698 -0.371828,0.20638 m -3.415947,-0.13653 c -0.17145,0.0212 -0.347133,0.12877 -0.388055,0.25189 v 0 c -0.0088,0.0275 -0.01588,0.0716 0.0067,0.1076 v 0 c 0.02117,0.0339 0.05221,0.0409 0.09137,0.0441 v 0 c 0.13723,0.0102 0.353483,-0.0959 0.419805,-0.22683 v 0 c 0.0187,-0.0374 0.03104,-0.0833 0.0085,-0.12524 v 0 c -0.01446,-0.0261 -0.05327,-0.0529 -0.112536,-0.0529 v 0 c -0.0085,0 -0.01729,7.1e-4 -0.02575,0.001 m 1.04775,0.13724 c -1.053394,0.55315 -1.919464,1.3402 -2.475794,2.30998 v 0 c -0.464609,0.80857 -0.712611,1.74449 -0.675217,2.77742 v 0 c -0.0028,-0.01 -0.01199,-0.0377 -0.01975,-0.066 v 0 c -0.08961,-0.34219 -0.138642,-0.69567 -0.138642,-1.04951 v 0 c 0,-0.48189 0.09384,-0.95215 0.261761,-1.39559 v 0 c 0.213431,-0.56762 0.548217,-1.0922 0.961672,-1.54058 v 0 c 0.136172,-0.14852 0.418042,-0.38347 0.487186,-0.46284 v 0 c 0.05398,-0.0624 0.09102,-0.14253 0.05891,-0.20567 v 0 c -0.02469,-0.0473 -0.06703,-0.0639 -0.121708,-0.0639 v 0 c -0.230717,0 -0.581378,0.35384 -0.732367,0.51753 v 0 c -0.773641,0.83855 -1.225903,1.9364 -1.225903,3.08257 v 0 c 0,1.34338 0.572912,2.75696 1.881012,3.72745 v 0 c 0.05644,0.0423 0.155575,0.10301 0.238125,0.13406 v 0 c 0.01658,0.006 0.0314,-7.1e-4 0.03775,-0.0106 v 0 c 0.0053,-0.008 0.0056,-0.0261 -0.0049,-0.0385 v 0 c -0.05962,-0.0709 -0.09984,-0.121 -0.118533,-0.17639 v 0 c -0.01446,-0.0455 -0.0028,-0.11677 0.0032,-0.14252 v 0 c 0.111477,-0.51294 0.620536,-0.85619 1.154994,-1.23331 v 0 c 0.330553,-0.23354 1.76283,-1.00859 2.413705,-1.53317 v 0 c 0.213078,-0.17181 0.298803,-0.26776 0.307975,-0.35984 v 0 c 0.0053,-0.0476 -0.01094,-0.0931 -0.04269,-0.12312 v 0 c -0.02117,-0.0208 -0.04798,-0.0342 -0.08079,-0.0374 v 0 c -0.108655,-0.0123 -0.232833,0.0279 -0.37853,0.14534 v 0 c -0.746478,0.60255 -1.872545,1.19133 -2.663825,1.8154 v 0 c -0.460728,0.36336 -0.807861,0.73871 -0.902406,1.1363 v 0 c -0.006,-0.005 -0.01834,-0.0155 -0.02505,-0.0208 v 0 c 0.118886,-1.47461 2.074686,-2.43805 3.080455,-3.27519 v 0 c 0.245887,-0.20461 1.012473,-0.8008 1.1303,-1.0675 v 0 c 0.03881,-0.0889 0.01835,-0.17674 -0.03563,-0.21132 v 0 c -0.04198,-0.0272 -0.09666,-0.0388 -0.149931,-0.0268 v 0 c -0.118886,0.0261 -0.259644,0.14288 -0.410986,0.28575 v 0 c -1.245658,1.17793 -2.280355,1.70639 -2.988027,2.46063 v 0 c -0.394053,0.42016 -0.686859,0.91157 -0.857956,1.62277 v 0 c -0.0049,-0.005 -0.02152,-0.0208 -0.02646,-0.0254 v 0 c 0.06315,-1.07738 0.757766,-2.1343 1.579738,-2.86878 v 0 c 0.292453,-0.26141 0.485423,-0.41346 0.604662,-0.5267 v 0 c 0.07126,-0.0674 0.119238,-0.16545 0.06668,-0.25647 v 0 c -0.03951,-0.0695 -0.12065,-0.0804 -0.193323,-0.0699 v 0 c -0.12065,0.0166 -0.201789,0.0804 -0.288572,0.14887 v 0 c -0.576439,0.45508 -1.068211,1.02412 -1.426986,1.67005 v 0 c -0.282222,0.508 -0.481542,1.06433 -0.574675,1.6503 v 0 c -0.0046,-0.005 -0.01905,-0.0208 -0.02399,-0.0268 v 0 c 0.06315,-1.64429 0.815622,-2.84374 1.868311,-3.79412 v 0 c 0.252942,-0.2286 0.477661,-0.381 0.743656,-0.58808 v 0 c 0.206728,-0.16122 0.24765,-0.30092 0.194028,-0.38876 v 0 c -0.04974,-0.0808 -0.14217,-0.0808 -0.255059,-0.0455 v 0 c -0.217664,0.0681 -0.44203,0.26882 -0.733072,0.52881 v 0 c -0.65793,0.5902 -1.189567,1.21673 -1.54693,1.97626 v 0 c -0.27305,0.58138 -0.444853,1.24037 -0.493889,2.02001 v 0 c -0.0035,-0.005 -0.01835,-0.0261 -0.02187,-0.031 v 0 c -0.02011,-0.19615 -0.0134,-0.46038 0,-0.64947 v 0 c 0.05151,-0.76694 0.169334,-2.36537 2.360789,-4.14972 v 0 c 0.390878,-0.3175 1.036814,-0.69321 1.495778,-0.9271 v 0 c 0.140053,-0.0716 0.278694,-0.13441 0.409222,-0.22155 v 0 c 0.07691,-0.0519 0.122061,-0.12735 0.09666,-0.20531 v 0 c -0.0254,-0.078 -0.09419,-0.0917 -0.166511,-0.0917 v 0 c -0.148166,0 -0.269875,0.0667 -0.39758,0.13018 v 0 c -1.018117,0.50623 -2.182636,1.25624 -3.003197,2.3876 v 0 c -0.620889,0.85725 -1.045281,1.93322 -1.06045,3.28718 v 0 c -0.0099,-0.018 -0.0099,-0.0183 -0.02046,-0.0399 v 0 c -0.05256,-0.32526 -0.06773,-0.66464 -0.06279,-0.89817 v 0 c 0.03986,-2.12408 1.2954,-3.60257 3.023305,-4.6221 v 0 c 0.144639,-0.0854 0.2921,-0.17815 0.2921,-0.30656 v 0 c 0,-0.0847 -0.06138,-0.12806 -0.140052,-0.12806 v 0 c -0.07938,0 -0.148873,0.0247 -0.267406,0.0871 m 3.58387,0.24765 c -0.0078,0.007 -0.01164,0.0229 -0.0028,0.0332 v 0 c 1.077031,1.19803 0.636764,2.94181 -0.1397,3.84422 v 0 c -0.686505,0.79692 -1.575858,1.35607 -2.37878,1.7914 v 0 c -0.05997,0.0328 -0.150989,0.0765 -0.197203,0.12418 v 0 c -0.07373,0.0762 -0.09701,0.14358 -0.0635,0.21625 v 0 c 0.0314,0.0688 0.09419,0.0977 0.203906,0.0843 v 0 c 0.06033,-0.007 0.197202,-0.0519 0.28328,-0.0956 v 0 c 0.749653,-0.3817 1.534936,-0.91016 2.141008,-1.58679 v 0 c 0.74295,-0.82797 1.215673,-1.87819 1.02235,-3.1489 v 0 c 0.01376,0.0201 0.02469,0.0325 0.03387,0.049 v 0 c 0.404989,1.00436 0.0695,2.2673 -0.82938,3.38631 v 0 c -0.633589,0.78917 -1.546931,1.50707 -2.676525,2.01331 v 0 c -0.08537,0.0381 -0.215548,0.10442 -0.26282,0.20214 v 0 c -0.02328,0.048 -0.02152,0.10583 0.0032,0.15063 v 0 c 0.01976,0.0356 0.05539,0.0628 0.104422,0.066 v 0 c 0.143934,0.01 0.284339,-0.0645 0.410986,-0.12735 v 0 c 1.80587,-0.89217 3.777192,-2.52201 3.668536,-4.9343 v 0 c 0.01023,0.0282 0.02046,0.0487 0.02716,0.0646 v 0 c 0.196145,0.99095 -0.02752,1.86831 -0.441677,2.60597 v 0 c -0.352778,0.62794 -0.844903,1.15499 -1.336675,1.5628 v 0 c -0.264584,0.21978 -0.370064,0.34361 -0.306564,0.45403 v 0 c 0.06456,0.11147 0.233891,0.0579 0.335491,-0.003 v 0 c 0.195439,-0.11712 0.376414,-0.29139 0.509059,-0.42615 v 0 c 0.809625,-0.81915 1.411816,-1.69933 1.5494,-3.1676 v 0 c 0.0063,0.0709 0.01693,0.14888 0.0194,0.19721 v 0 c 0.02787,0.74648 -0.117827,1.42204 -0.392288,2.01259 v 0 c -0.412398,0.889 -1.114778,1.58433 -1.94945,2.03271 v 0 c -0.173214,0.0931 -0.238125,0.1972 -0.200025,0.2981 v 0 c 0.02081,0.0579 0.07585,0.0868 0.138289,0.0924 v 0 c 0.07796,0.008 0.140405,-0.0152 0.209902,-0.0526 v 0 c 1.519061,-0.8195 2.455686,-2.3435 2.455686,-4.08552 v 0 c 0,-1.27211 -0.558094,-2.6296 -1.795638,-3.60574 v 0 c -0.03316,-0.0265 -0.07691,-0.0512 -0.112184,-0.0582 v 0 c -0.0011,-3.5e-4 -0.0035,-3.5e-4 -0.0053,-3.5e-4 v 0 c -0.0074,0 -0.01729,0.002 -0.0254,0.0109 m -1.143,0.52634 c -0.0067,0.0614 0.05256,0.0914 0.105127,0.097 v 0 c 0.117123,0.0117 0.337961,-0.0822 0.352425,-0.21484 v 0 c 0.0053,-0.0614 -0.05327,-0.0921 -0.105833,-0.0974 v 0 c -0.0071,-7.1e-4 -0.01376,-0.001 -0.02081,-0.001 v 0 c -0.121003,0 -0.317853,0.0917 -0.330905,0.21625 m -0.865012,0.39158 c -0.0063,0.0674 0.05433,0.10584 0.113948,0.11042 v 0 c 0.155575,0.0138 0.480836,-0.12876 0.496358,-0.30515 v 0 c 0.006,-0.0674 -0.05468,-0.10513 -0.114653,-0.10971 v 0 c -0.0067,-0.001 -0.01376,-0.001 -0.02081,-0.001 v 0 c -0.161219,0 -0.460727,0.13794 -0.474839,0.30586 m -0.300566,0.0942 c -0.192617,0 -0.569736,0.22084 -0.576792,0.42757 v 0 c -0.0028,0.0773 0.06138,0.10936 0.129822,0.11183 v 0 c 0.188384,0.006 0.577498,-0.21943 0.584906,-0.42756 v 0 c 0.0025,-0.0752 -0.0628,-0.10972 -0.129822,-0.11184 v 0 z m 1.683808,0.45368 c 0,0.0543 0.0321,0.10124 0.08996,0.10124 v 0 c 0.12312,0 0.24765,-0.18662 0.24765,-0.29915 v 0 c 0,-0.055 -0.03104,-0.1009 -0.08996,-0.1009 v 0 c -0.122767,0 -0.24765,0.18521 -0.24765,0.29881 m -0.332669,0.40216 c -0.0374,0.0406 -0.0702,0.0868 -0.0949,0.1323 v 0 c -0.02364,0.0455 -0.0388,0.0914 -0.04127,0.13229 v 0 c -0.0039,0.0663 0.03422,0.12171 0.09913,0.12171 v 0 c 0.04022,0 0.08537,-0.0166 0.130528,-0.0445 v 0 c 0.0448,-0.0275 0.08925,-0.0656 0.128411,-0.10937 v 0 c 0.03916,-0.0437 0.07373,-0.0917 0.09878,-0.13934 v 0 c 0.02434,-0.0476 0.03845,-0.0942 0.03845,-0.13371 v 0 c 0,-0.0691 -0.04339,-0.10265 -0.109713,-0.10265 v 0 c -0.07973,0 -0.174273,0.0614 -0.249414,0.14322 m -1.324328,0.20532 h -7.06e-4 c -0.07867,0.0339 -0.184502,0.11994 -0.184502,0.21449 v 0 c 0,0.0614 0.05644,0.091 0.112536,0.091 v 0 c 0.116769,0 0.29845,-0.11254 0.29845,-0.24166 v 0 c 0,-0.0617 -0.0568,-0.0903 -0.111831,-0.0903 v 0 c -0.03986,0 -0.07832,0.01 -0.113947,0.0265 m -1.014589,0.73731 c 0,0.085 0.07761,0.11923 0.151694,0.11923 v 0 c 0.176742,0 0.544689,-0.23036 0.544689,-0.42545 v 0 c 0,-0.0882 -0.08114,-0.11888 -0.156633,-0.11888 v 0 c -0.173567,0 -0.53975,0.23565 -0.53975,0.4251 m 2.775303,0.13687 c 0,0.067 0.04445,0.12383 0.115005,0.12383 v 0 c 0.132645,0 0.263525,-0.16122 0.263525,-0.28822 v 0 c 0,-0.0674 -0.04445,-0.12418 -0.114652,-0.12418 v 0 c -0.132998,0 -0.263878,0.16087 -0.263878,0.28857 m -0.29845,0.30904 c -0.06809,0.031 -0.143228,0.084 -0.206375,0.14711 v 0 c -0.0628,0.0642 -0.113947,0.13864 -0.134761,0.21413 v 0 c -0.01552,0.0579 -0.0085,0.11853 0.01834,0.15099 v 0 c 0.03387,0.0409 0.0956,0.049 0.142875,0.0409 v 0 c 0.08149,-0.013 0.171803,-0.0713 0.246239,-0.14958 v 0 c 0.07479,-0.078 0.13335,-0.17568 0.153106,-0.2674 v 0 c 0.01482,-0.0716 -0.0078,-0.11571 -0.03669,-0.139 v 0 c -0.02081,-0.0173 -0.04621,-0.0261 -0.07585,-0.0261 v 0 c -0.03069,0 -0.06597,0.009 -0.106891,0.0289 m -2.822575,2.9852 c -0.05609,0.0515 -0.07902,0.11677 -0.05927,0.16828 v 0 c 0.02752,0.0727 0.08502,0.0794 0.143228,0.0794 v 0 c 0.116064,0 0.387703,-0.0794 0.517172,-0.20919 v 0 c 0.04022,-0.0395 0.06456,-0.1009 0.05045,-0.15382 v 0 c -0.01729,-0.0631 -0.08467,-0.0892 -0.141816,-0.0892 v 0 c -0.120298,0 -0.392995,0.0984 -0.509764,0.20461 m 2.497666,0.67204 c -0.113241,0.0155 -0.358775,0.14429 -0.45473,0.26071 v 0 c -0.04692,0.0557 -0.06033,0.121 -0.03528,0.16686 v 0 c 0.03598,0.0653 0.09137,0.0642 0.14605,0.0568 v 0 c 0.11042,-0.0152 0.357011,-0.12559 0.462492,-0.26564 v 0 c 0.03281,-0.043 0.04904,-0.10407 0.02822,-0.15205 v 0 c -0.02117,-0.0494 -0.07338,-0.0684 -0.121356,-0.0684 v 0 c -0.0088,0 -0.01693,7.1e-4 -0.0254,0.002 m -2.611261,0.34502 c -0.05574,0.0459 -0.08149,0.1076 -0.06562,0.15734 v 0 c 0.02258,0.0709 0.07832,0.0804 0.13335,0.0833 v 0 c 0.110772,0.006 0.373591,-0.0579 0.503414,-0.17463 v 0 c 0.04022,-0.0367 0.06668,-0.0935 0.05574,-0.14429 v 0 c -0.0134,-0.0617 -0.07691,-0.0903 -0.131233,-0.0924 v 0 c -0.0039,-3.6e-4 -0.0085,-7.1e-4 -0.01235,-7.1e-4 v 0 c -0.120297,0 -0.371122,0.0787 -0.483306,0.17145 m -0.527755,0.17463 c -0.05398,0 -0.166159,0.0169 -0.262114,0.0737 v 0 c -0.0448,0.0261 -0.08185,0.0695 -0.07796,0.1217 v 0 c 0.0049,0.0625 0.05362,0.0857 0.115358,0.0917 v 0 c 0.0882,0.009 0.194381,-0.006 0.283634,-0.0575 v 0 c 0.0448,-0.0268 0.08537,-0.0815 0.08184,-0.1344 v 0 c -0.0039,-0.0702 -0.06738,-0.0942 -0.135819,-0.0952 v 0 z m 1.745544,0.20778 c -0.04833,0.0434 -0.06773,0.10054 -0.05115,0.14394 v 0 c 0.02364,0.0628 0.07303,0.0688 0.123473,0.0688 v 0 c 0.100189,0 0.333375,-0.0688 0.4445,-0.18098 v 0 c 0.03457,-0.0339 0.05609,-0.0861 0.04374,-0.13194 v 0 c -0.01482,-0.0543 -0.07302,-0.0773 -0.122414,-0.0773 v 0 c -0.103011,7.1e-4 -0.337255,0.0854 -0.43815,0.17745 m 0.9144,0.21414 c -0.06385,0.042 -0.09948,0.10689 -0.08819,0.15945 v 0 c 0.01446,0.0646 0.07267,0.0935 0.154869,0.0931 v 0 c 0.101247,-3.6e-4 0.230717,-0.0406 0.310092,-0.0942 v 0 c 0.05644,-0.0385 0.0956,-0.096 0.07796,-0.15734 v 0 c -0.0187,-0.0677 -0.09066,-0.0917 -0.144286,-0.0938 v 0 c -0.0042,-3.6e-4 -0.0088,-3.6e-4 -0.0127,-3.6e-4 v 0 c -0.08079,0 -0.206728,0.0321 -0.297745,0.0931 m -1.524353,-0.005 c -0.04939,7.1e-4 -0.15628,0.0198 -0.244475,0.079 v 0 c -0.03986,0.0272 -0.07126,0.0706 -0.0635,0.11924 v 0 c 0.0095,0.0603 0.0575,0.0811 0.116417,0.0847 v 0 c 0.08361,0.006 0.182033,-0.0124 0.261761,-0.0642 v 0 c 0.04057,-0.0279 0.07338,-0.0815 0.06597,-0.13123 v 0 c -0.0092,-0.0656 -0.06738,-0.0875 -0.130528,-0.0875 v 0 z"
       style="fill:url(#radialGradient40730);stroke:none;stroke-width:0.35277778"
       id="path40732"
       inkscape:connector-curvature="0" />
    <path
       inkscape:connector-curvature="0"
       id="path40744"
       style="fill:#696566;fill-opacity:1;fill-rule:nonzero;stroke:none;stroke-width:0.35277778"
       d="m -8.4579169,153.38745 h 0.79375 l -0.3986389,-1.32997 z m 0.8914694,0.32279 h -0.9891888 l -0.1778,0.60184 c -0.03175,0.004 -0.062795,0.008 -0.094192,0.0106 -0.031397,0.002 -0.062794,0.004 -0.094192,0.004 -0.034219,0 -0.067028,-0.001 -0.099483,-0.004 -0.033161,-0.002 -0.062794,-0.006 -0.089253,-0.0106 l 0.8480778,-2.60632 c 0.03175,-0.005 0.065264,-0.008 0.1016,-0.0106 0.036336,-0.002 0.07373,-0.004 0.1125361,-0.004 0.033514,0 0.069144,0.001 0.104775,0.004 0.036689,0.002 0.071614,0.006 0.1054805,0.0106 l 0.84455,2.60632 c -0.028928,0.004 -0.061736,0.008 -0.097719,0.0106 -0.036689,0.002 -0.071261,0.004 -0.1051278,0.004 -0.03175,0 -0.063853,-0.001 -0.095956,-0.004 -0.032808,-0.002 -0.063853,-0.006 -0.092428,-0.0106 z" />
    <path
       inkscape:connector-curvature="0"
       id="path40748"
       style="fill:#696566;fill-opacity:1;fill-rule:nonzero;stroke:none;stroke-width:0.35277778"
       d="m -5.7539106,151.70583 c 0.026458,-0.005 0.054681,-0.008 0.085019,-0.0109 0.029986,-0.002 0.062089,-0.004 0.096308,-0.004 0.031044,0 0.062442,0.001 0.094192,0.004 0.031397,0.002 0.061383,0.006 0.090311,0.0109 v 2.28 h 1.02235 c 0.00494,0.0265 0.00776,0.0543 0.00882,0.0829 0.00141,0.0293 0.00176,0.0561 0.00176,0.0801 0,0.0579 -0.00353,0.11253 -0.010583,0.16333 h -1.3881805 z" />
    <path
       inkscape:connector-curvature="0"
       id="path40752"
       style="fill:#696566;fill-opacity:1;fill-rule:nonzero;stroke:none;stroke-width:0.35277778"
       d="m -2.9918018,153.43822 c -0.036336,-0.005 -0.082197,-0.01 -0.1375833,-0.0145 -0.055739,-0.005 -0.1026584,-0.007 -0.1418167,-0.007 -0.1495778,0 -0.2638778,0.0279 -0.3421944,0.0833 -0.07867,0.0554 -0.1178278,0.1404 -0.1178278,0.25364 0,0.0723 0.013053,0.12947 0.039864,0.17004 0.026458,0.0416 0.059972,0.0727 0.099483,0.0945 0.040217,0.0219 0.084314,0.0353 0.1326445,0.0399 0.048331,0.005 0.094192,0.007 0.1375833,0.007 0.055739,0 0.1132416,-0.003 0.1721555,-0.009 0.059267,-0.006 0.1118306,-0.0148 0.1576917,-0.0272 z m 0,-0.35172 c 0,-0.14217 -0.036336,-0.2413 -0.1086556,-0.29704 -0.072672,-0.0554 -0.1774472,-0.0832 -0.3153833,-0.0832 -0.084667,0 -0.1633361,0.006 -0.2370666,0.0198 -0.074083,0.0134 -0.1456973,0.031 -0.2159,0.0529 -0.046214,-0.0797 -0.069145,-0.17533 -0.069145,-0.28681 0.08255,-0.0265 0.1725084,-0.0469 0.2719917,-0.0614 0.09913,-0.0145 0.1943805,-0.0215 0.2864555,-0.0215 0.2416528,0 0.4247445,0.055 0.5506861,0.16474 0.1255889,0.11007 0.1887361,0.2854 0.1887361,0.52741 v 1.16346 c -0.084667,0.0194 -0.187325,0.0392 -0.3083277,0.0596 -0.1210028,0.0205 -0.2437695,0.031 -0.3693584,0.031 -0.1185333,0 -0.2257777,-0.0113 -0.3210277,-0.0328 -0.095603,-0.0219 -0.1763889,-0.0568 -0.2430639,-0.10512 -0.06597,-0.0483 -0.1171222,-0.10972 -0.1538111,-0.18486 -0.035983,-0.0748 -0.054328,-0.16545 -0.054328,-0.27164 0,-0.10407 0.021167,-0.19508 0.063147,-0.27375 0.042333,-0.0787 0.1001889,-0.14358 0.1725084,-0.1958 0.072672,-0.0519 0.1559277,-0.0903 0.2501194,-0.11571 0.094192,-0.0254 0.1933222,-0.0384 0.2973917,-0.0384 0.076905,0 0.1404055,0.002 0.1901472,0.006 0.049389,0.004 0.090664,0.008 0.1248833,0.013 z" />
    <path
       inkscape:connector-curvature="0"
       id="path40756"
       style="fill:#696566;fill-opacity:1;fill-rule:nonzero;stroke:none;stroke-width:0.35277778"
       d="m -2.1650671,152.45235 c 0.026458,-0.005 0.051858,-0.008 0.0762,-0.0106 0.023989,-0.002 0.049389,-0.004 0.075847,-0.004 0.027164,0 0.053622,0.001 0.080081,0.004 0.026458,0.002 0.0508,0.006 0.072672,0.0106 0.0067,0.0363 0.014111,0.0843 0.021519,0.14323 0.00706,0.0593 0.010936,0.10936 0.010936,0.15028 0.050447,-0.0822 0.1181806,-0.15346 0.2010834,-0.21378 0.083255,-0.0603 0.1901472,-0.0903 0.320675,-0.0903 0.01905,0 0.039511,3.5e-4 0.059972,0.001 0.020461,0.001 0.037747,0.003 0.052564,0.006 0.00459,0.0215 0.00811,0.0444 0.010583,0.0684 0.00247,0.0243 0.00388,0.0497 0.00388,0.0766 0,0.0289 -0.00212,0.0593 -0.00564,0.0907 -0.00353,0.031 -0.00741,0.0614 -0.012347,0.0907 -0.01905,-0.005 -0.039511,-0.007 -0.060325,-0.007 h -0.048683 c -0.065264,0 -0.1273528,0.009 -0.1862667,0.0272 -0.059619,0.018 -0.1128889,0.0501 -0.1598083,0.0959 -0.04692,0.0459 -0.084667,0.10901 -0.1125361,0.18874 -0.027517,0.0794 -0.041628,0.18238 -0.041628,0.30762 v 0.92463 c -0.026458,0.005 -0.056092,0.008 -0.0889,0.0106 -0.032456,0.002 -0.061736,0.004 -0.088547,0.004 -0.026811,0 -0.056445,-0.001 -0.0889,-0.004 -0.032456,-0.002 -0.063147,-0.006 -0.092428,-0.0106 z" />
    <path
       inkscape:connector-curvature="0"
       id="path40760"
       style="fill:#696566;fill-opacity:1;fill-rule:nonzero;stroke:none;stroke-width:0.35277778"
       d="m -0.87845128,153.97472 c 0.065264,0.0268 0.1372306,0.0476 0.21554722,0.0635 0.0790222,0.0159 0.15663333,0.0236 0.23424444,0.0236 0.0553861,0 0.10830277,-0.006 0.15910277,-0.0183 0.0508,-0.012 0.0948972,-0.0303 0.13264444,-0.054 0.0370417,-0.0247 0.0673806,-0.054 0.0906639,-0.0889 0.0225778,-0.0353 0.0342194,-0.0744 0.0342194,-0.11783 0,-0.0483 -0.009172,-0.0885 -0.0271639,-0.11959 -0.0179917,-0.0314 -0.0423333,-0.0582 -0.0726722,-0.0797 -0.0303389,-0.0219 -0.0649111,-0.0406 -0.10512777,-0.0564 -0.0395111,-0.0155 -0.08255,-0.0307 -0.12876389,-0.0452 l -0.12629444,-0.0473 c -0.15486944,-0.0579 -0.26740557,-0.12312 -0.33760827,-0.19544 -0.06985,-0.0727 -0.1051278,-0.17039 -0.1051278,-0.29351 0,-0.16475 0.058561,-0.29492 0.1756833,-0.39159 0.117475,-0.097 0.28963055,-0.14534 0.51681943,-0.14534 0.0941917,0 0.18697222,0.009 0.27728333,0.0272 0.0906639,0.0183 0.16968611,0.0395 0.23741944,0.0639 -0.004586,0.0483 -0.0141111,0.0967 -0.0271639,0.14464 -0.0134055,0.0483 -0.0296333,0.0931 -0.0490361,0.13405 -0.0529167,-0.0194 -0.11641666,-0.0377 -0.19014722,-0.0561 -0.0737305,-0.018 -0.15275277,-0.0272 -0.23741944,-0.0272 -0.0892528,0 -0.16827499,0.0159 -0.23741944,0.0473 -0.0691444,0.0314 -0.10336388,0.0868 -0.10336388,0.16651 0,0.0413 0.008467,0.0762 0.0257528,0.10513 0.0165806,0.0293 0.0395111,0.054 0.0684389,0.0744 0.0292806,0.0205 0.0620889,0.0381 0.0998361,0.0526 0.0373944,0.0145 0.0779639,0.0293 0.12135555,0.0437 l 0.15980833,0.0543 c 0.0578556,0.019 0.11253611,0.042 0.16439444,0.0688 0.0522111,0.0265 0.09701389,0.0596 0.13405556,0.0995 0.0377472,0.0399 0.0677333,0.0882 0.0910167,0.145 0.0225778,0.0568 0.0338667,0.12523 0.0338667,0.20496 0,0.0893 -0.0176389,0.17074 -0.053975,0.24447 -0.0359833,0.0737 -0.0878417,0.13653 -0.15381111,0.18839 -0.066675,0.0522 -0.14675555,0.0928 -0.24129999,0.12135 -0.0941917,0.0293 -0.19790833,0.0437 -0.31185555,0.0437 -0.11571111,0 -0.21731111,-0.008 -0.30409444,-0.0233 -0.0871361,-0.0162 -0.16827504,-0.0374 -0.24306394,-0.0639 0.00459,-0.0483 0.015169,-0.0974 0.031044,-0.14675 0.015522,-0.0494 0.032808,-0.0984 0.052211,-0.14676" />
    <path
       inkscape:connector-curvature="0"
       id="path40764"
       style="fill:#696566;fill-opacity:1;fill-rule:nonzero;stroke:none;stroke-width:0.35277778"
       d="m 1.9420776,153.2027 c 0,-0.0674 -0.00917,-0.13229 -0.027164,-0.19403 -0.018344,-0.0617 -0.044803,-0.115 -0.080081,-0.16122 -0.034572,-0.0459 -0.079375,-0.0825 -0.1337028,-0.11042 -0.054681,-0.0279 -0.1188861,-0.0416 -0.1940278,-0.0416 -0.1474611,0 -0.2607027,0.0448 -0.3393722,0.13405 -0.077964,0.0892 -0.1259417,0.21378 -0.142875,0.37324 z m -0.92075,0.26811 c 0.00459,0.2032 0.057503,0.35172 0.1576917,0.44591 0.1005416,0.0942 0.2483555,0.14111 0.4441472,0.14111 0.17145,0 0.3344333,-0.0296 0.48895,-0.0903 0.019403,0.0363 0.035278,0.0804 0.047272,0.13229 0.011995,0.0522 0.019403,0.10337 0.02152,0.15381 -0.079375,0.0342 -0.1672167,0.0593 -0.2624667,0.0762 -0.095603,0.0173 -0.2010833,0.0254 -0.3167944,0.0254 -0.1696862,0 -0.314325,-0.0233 -0.4353278,-0.0705 -0.1210028,-0.0473 -0.2204861,-0.1136 -0.29880277,-0.19932 -0.0786694,-0.0857 -0.13617222,-0.18697 -0.17250833,-0.30445 -0.0359833,-0.11747 -0.053975,-0.24553 -0.053975,-0.38629 0,-0.13758 0.0172861,-0.26635 0.0522111,-0.38594 0.034925,-0.11924 0.0889,-0.22331 0.16121945,-0.31185 0.0726722,-0.0882 0.16368885,-0.15805 0.27375555,-0.20991 0.1100667,-0.0522 0.2398889,-0.078 0.3894666,-0.078 0.1280584,0 0.2405945,0.0215 0.3376084,0.0653 0.096308,0.0434 0.1770944,0.10337 0.2427111,0.17922 0.065264,0.0762 0.1143,0.16686 0.1485194,0.27199 0.033867,0.10512 0.0508,0.21907 0.0508,0.34219 0,0.0342 -0.00106,0.0698 -0.00353,0.10725 -0.00247,0.0374 -0.00529,0.0695 -0.00776,0.0959 z" />
    <path
       inkscape:connector-curvature="0"
       id="path40768"
       style="fill:#696566;fill-opacity:1;fill-rule:nonzero;stroke:none;stroke-width:0.35277778"
       d="m 2.6957873,152.45235 c 0.026811,-0.005 0.052564,-0.008 0.078317,-0.0106 0.025047,-0.002 0.051153,-0.004 0.077611,-0.004 0.026458,0 0.051506,0.001 0.074436,0.004 0.02293,0.002 0.047625,0.006 0.074436,0.0106 0.0067,0.0363 0.014111,0.0854 0.021519,0.14676 0.00706,0.0617 0.010936,0.11324 0.010936,0.15416 0.023989,-0.0409 0.054681,-0.0822 0.092428,-0.12312 0.037395,-0.0409 0.080081,-0.078 0.1284111,-0.11077 0.048331,-0.0325 0.1037167,-0.0589 0.1672167,-0.0794 0.062442,-0.0208 0.1312333,-0.031 0.206375,-0.031 0.212725,0 0.3693583,0.0607 0.4709583,0.18274 0.1016,0.12206 0.1524,0.30268 0.1524,0.54186 v 1.17828 c -0.026458,0.005 -0.056797,0.008 -0.090311,0.0106 -0.034219,0.002 -0.064558,0.004 -0.091017,0.004 -0.026811,0 -0.056092,-0.001 -0.0889,-0.004 -0.032455,-0.002 -0.062089,-0.006 -0.088547,-0.0106 v -1.0802 c 0,-0.17145 -0.026811,-0.29775 -0.079728,-0.37853 -0.053269,-0.0811 -0.1379361,-0.12136 -0.254,-0.12136 -0.067381,0 -0.1315861,0.0116 -0.1915583,0.036 -0.060678,0.024 -0.1139472,0.0617 -0.1598083,0.11254 -0.045861,0.0505 -0.082903,0.11642 -0.1104195,0.19755 -0.027869,0.0808 -0.041981,0.17816 -0.041981,0.29175 v 0.94227 c -0.026458,0.005 -0.056092,0.008 -0.0889,0.0106 -0.032456,0.002 -0.061736,0.004 -0.088547,0.004 -0.026458,0 -0.056797,-0.001 -0.090664,-0.004 -0.033867,-0.002 -0.063853,-0.006 -0.090664,-0.0106 z" />
    <path
       inkscape:connector-curvature="0"
       id="path40772"
       style="fill:#696566;fill-opacity:1;fill-rule:nonzero;stroke:none;stroke-width:0.35277778"
       d="m 6.5777186,154.02905 c 0.1400528,0 0.2557639,-0.018 0.346075,-0.0543 0.090664,-0.036 0.1612194,-0.0843 0.2120194,-0.14499 0.0508,-0.0603 0.086078,-0.13053 0.1051278,-0.2099 0.019403,-0.0801 0.028928,-0.16228 0.028928,-0.24659 v -0.43145 H 6.5343269 c -0.087136,0 -0.1658055,0.0152 -0.2360083,0.0452 -0.06985,0.0303 -0.1287639,0.072 -0.1770944,0.12489 -0.048683,0.0536 -0.086078,0.11465 -0.1125361,0.18344 -0.026811,0.0688 -0.039864,0.14182 -0.039864,0.21943 0,0.16651 0.051858,0.29386 0.155575,0.38206 0.1040694,0.0885 0.2554111,0.13229 0.4533194,0.13229 m -0.5471583,-1.72896 c 0,0.10407 0.034219,0.18697 0.1033639,0.24835 0.068792,0.0617 0.1792111,0.0924 0.3316111,0.0924 h 0.7902222 l 0.3330222,-0.45649 h 0.02928 v 0.45649 h 0.4713111 c 0.00953,0.0413 0.014464,0.0882 0.014464,0.14146 0,0.0265 -0.00141,0.0522 -0.00388,0.0776 -0.00247,0.0254 -0.006,0.0505 -0.010583,0.0744 H 7.6180602 v 0.53658 c 0,0.14746 -0.0254,0.27657 -0.0762,0.3877 -0.0508,0.11112 -0.1231194,0.2039 -0.2176638,0.27763 -0.093839,0.0737 -0.2070806,0.12877 -0.3386667,0.16475 -0.1315861,0.0363 -0.2772833,0.0543 -0.4367389,0.0543 -0.1280583,0 -0.2515305,-0.0148 -0.3697111,-0.0434 -0.1181805,-0.0293 -0.2229555,-0.0751 -0.3136194,-0.13829 -0.090664,-0.0624 -0.1626306,-0.14393 -0.2155472,-0.24306 -0.052917,-0.0991 -0.079375,-0.21873 -0.079375,-0.35878 0,-0.0801 0.010936,-0.15875 0.033867,-0.23636 0.022931,-0.0773 0.055386,-0.14923 0.09772,-0.2159 0.042333,-0.0663 0.092075,-0.12453 0.1488722,-0.17392 0.056797,-0.0497 0.1178278,-0.0878 0.1830917,-0.1143 -0.1040695,-0.0462 -0.1912056,-0.11183 -0.2624667,-0.1972 -0.071261,-0.0857 -0.1072444,-0.20109 -0.1072444,-0.34573 0,-0.10618 0.020461,-0.19826 0.061383,-0.27693 0.041275,-0.0783 0.097014,-0.14322 0.1668639,-0.19543 0.070203,-0.0519 0.1531055,-0.0907 0.2483555,-0.11607 0.095603,-0.0254 0.1964972,-0.0377 0.3023306,-0.0377 0.063147,0 0.1329972,0.005 0.2106083,0.0145 0.077258,0.01 0.1580444,0.0289 0.2427111,0.0579 -0.00247,0.0557 -0.00953,0.10478 -0.021872,0.14711 -0.011995,0.042 -0.031045,0.084 -0.057856,0.12489 -0.062794,-0.0194 -0.1231194,-0.0332 -0.180975,-0.0416 -0.058208,-0.008 -0.1150055,-0.0127 -0.1703916,-0.0127 -0.079728,0 -0.1471084,0.0106 -0.2010834,0.0307 -0.05468,0.0208 -0.099483,0.0473 -0.1344083,0.0801 -0.034925,0.0321 -0.060325,0.0691 -0.0762,0.11042 -0.015522,0.0413 -0.023283,0.0832 -0.023283,0.12665" />
    <path
       inkscape:connector-curvature="0"
       id="path40776"
       style="fill:#696566;fill-opacity:1;fill-rule:nonzero;stroke:none;stroke-width:0.35277778"
       d="M 9.6774005,152.02831 H 8.9997144 c -0.00494,-0.024 -0.00847,-0.0508 -0.010583,-0.0797 -0.00282,-0.0289 -0.00388,-0.0568 -0.00388,-0.0832 0,-0.0265 0.00106,-0.054 0.00388,-0.0819 0.00212,-0.0275 0.00564,-0.0536 0.010583,-0.0776 h 1.7254366 c 0.0042,0.024 0.0081,0.0494 0.01058,0.0762 0.0025,0.0265 0.0039,0.0529 0.0039,0.0797 0,0.0265 -0.0014,0.055 -0.0039,0.085 -0.0025,0.0303 -0.0063,0.0575 -0.01058,0.0815 h -0.678039 v 2.28353 c -0.055739,0.007 -0.1160643,0.0109 -0.1813282,0.0109 -0.067381,0 -0.130175,-0.004 -0.1883833,-0.0109 z" />
    <path
       inkscape:connector-curvature="0"
       id="path40780"
       style="fill:#696566;fill-opacity:1;fill-rule:nonzero;stroke:none;stroke-width:0.35277778"
       d="m 11.554355,154.06899 c 0.166511,0 0.289631,-0.0603 0.369358,-0.18133 0.08008,-0.12065 0.119592,-0.28857 0.119592,-0.50376 0,-0.2152 -0.03951,-0.38242 -0.119592,-0.50201 -0.07973,-0.11959 -0.202847,-0.17956 -0.369358,-0.17956 -0.166511,0 -0.289278,0.06 -0.3683,0.17956 -0.07832,0.11959 -0.117122,0.28681 -0.117122,0.50201 0,0.21519 0.0388,0.38311 0.117122,0.50376 0.07902,0.12101 0.201789,0.18133 0.3683,0.18133 m 0,0.2861 c -0.144992,0 -0.271992,-0.0247 -0.381,-0.0741 -0.108303,-0.0497 -0.199319,-0.11783 -0.271639,-0.20461 -0.07267,-0.0871 -0.125942,-0.1898 -0.161219,-0.30833 -0.03492,-0.11853 -0.05256,-0.24659 -0.05256,-0.38417 0,-0.13794 0.01764,-0.26565 0.05256,-0.38418 0.03528,-0.11853 0.08855,-0.22119 0.161219,-0.30797 0.07232,-0.0871 0.163336,-0.15593 0.271639,-0.20673 0.109008,-0.0508 0.236008,-0.0762 0.381,-0.0762 0.144639,0 0.271639,0.0254 0.380647,0.0762 0.108303,0.0508 0.19932,0.11959 0.271639,0.20673 0.07267,0.0868 0.125942,0.18944 0.16122,0.30797 0.03492,0.11853 0.05256,0.24624 0.05256,0.38418 0,0.13758 -0.01764,0.26564 -0.05256,0.38417 -0.03528,0.11853 -0.08855,0.22119 -0.16122,0.30833 -0.07232,0.0868 -0.163336,0.15487 -0.271639,0.20461 -0.109008,0.0494 -0.236008,0.0741 -0.380647,0.0741" />
    <path
       inkscape:connector-curvature="0"
       id="path40784"
       style="fill:#696566;fill-opacity:1;fill-rule:nonzero;stroke:none;stroke-width:0.35277778"
       d="m 12.800225,152.45235 c 0.02646,-0.005 0.0568,-0.008 0.09066,-0.0106 0.03387,-0.002 0.06279,-0.004 0.08714,-0.004 0.02646,0 0.0568,0.001 0.09031,0.004 0.03422,0.002 0.06421,0.006 0.09066,0.0106 v 1.01847 c 0,0.11606 0.01094,0.21202 0.03281,0.28822 0.02152,0.0762 0.05433,0.13617 0.09772,0.17956 0.04339,0.0434 0.09666,0.0737 0.159808,0.0903 0.0628,0.0173 0.135114,0.0254 0.217311,0.0254 0.123472,0 0.228247,-0.0131 0.315031,-0.0395 v -1.56245 c 0.02681,-0.005 0.0568,-0.008 0.08925,-0.0106 0.03246,-0.002 0.06209,-0.004 0.08855,-0.004 0.02646,0 0.05609,0.001 0.0889,0.004 0.03281,0.002 0.06244,0.006 0.0889,0.0106 v 1.80128 c -0.08467,0.0243 -0.185561,0.0473 -0.302684,0.0688 -0.117122,0.0219 -0.23883,0.0328 -0.364066,0.0328 -0.118534,0 -0.230364,-0.0106 -0.335845,-0.0307 -0.104775,-0.0205 -0.197202,-0.0621 -0.27693,-0.12523 -0.07973,-0.0628 -0.142875,-0.15099 -0.188736,-0.26459 -0.04586,-0.11324 -0.06879,-0.26317 -0.06879,-0.44944 z" />
    <path
       inkscape:connector-curvature="0"
       id="path40788"
       style="fill:#696566;fill-opacity:1;fill-rule:nonzero;stroke:none;stroke-width:0.35277778"
       d="m 15.186343,154.01088 c 0.04339,0.0148 0.08996,0.025 0.139347,0.031 0.04974,0.006 0.100895,0.009 0.154164,0.009 0.08961,0 0.172156,-0.0138 0.248708,-0.0416 0.07585,-0.0279 0.141464,-0.0702 0.197203,-0.127 0.05574,-0.0565 0.09984,-0.12912 0.132645,-0.21731 0.03245,-0.0882 0.04868,-0.19262 0.04868,-0.31327 0,-0.20073 -0.03528,-0.35666 -0.105128,-0.46778 -0.06985,-0.11113 -0.185914,-0.16687 -0.347839,-0.16687 -0.05574,0 -0.110772,0.009 -0.1651,0.0272 -0.05433,0.0183 -0.104775,0.0473 -0.150636,0.0871 -0.04551,0.0399 -0.08255,0.0931 -0.110419,0.15946 -0.02787,0.0667 -0.04163,0.14675 -0.04163,0.2413 z m -0.358422,-2.35585 c 0.0261,-0.005 0.05574,-0.008 0.08855,-0.0109 0.03246,-0.002 0.06174,-0.004 0.08855,-0.004 0.02681,0 0.05715,0.001 0.09066,0.004 0.03387,0.002 0.06421,0.006 0.09066,0.0109 v 1.022 c 0.04339,-0.0723 0.110772,-0.13512 0.2032,-0.18803 0.09172,-0.0533 0.202847,-0.0801 0.333022,-0.0801 0.111478,0 0.214136,0.018 0.308681,0.0543 0.09384,0.0363 0.174978,0.0924 0.242711,0.16863 0.06738,0.0762 0.119944,0.17286 0.157692,0.28999 0.03739,0.11712 0.05574,0.25576 0.05574,0.41486 0,0.31891 -0.08996,0.56833 -0.269875,0.7486 -0.179916,0.17991 -0.439208,0.26987 -0.777522,0.26987 -0.106186,0 -0.2159,-0.0102 -0.328083,-0.0307 -0.111831,-0.0205 -0.207433,-0.0441 -0.283986,-0.0709 z" />
    <path
       inkscape:connector-curvature="0"
       id="path40792"
       style="fill:#696566;fill-opacity:1;fill-rule:nonzero;stroke:none;stroke-width:0.35277778"
       d="m 16.900878,152.45235 c 0.02646,-0.005 0.05186,-0.008 0.0762,-0.0106 0.02399,-0.002 0.04904,-0.004 0.07585,-0.004 0.02681,0 0.05327,0.001 0.08008,0.004 0.02646,0.002 0.05045,0.006 0.07232,0.0106 0.0071,0.0363 0.01446,0.0843 0.02152,0.14323 0.0074,0.0593 0.01094,0.10936 0.01094,0.15028 0.05045,-0.0822 0.11818,-0.15346 0.201083,-0.21378 0.08361,-0.0603 0.1905,-0.0903 0.321028,-0.0903 0.01905,0 0.03916,3.5e-4 0.05997,0.001 0.02011,0.001 0.03775,0.003 0.05256,0.006 0.0046,0.0215 0.0078,0.0444 0.01058,0.0684 0.0025,0.0243 0.0035,0.0497 0.0035,0.0766 0,0.0289 -0.0018,0.0593 -0.0056,0.0907 -0.0032,0.031 -0.0074,0.0614 -0.01235,0.0907 -0.01905,-0.005 -0.03951,-0.007 -0.05997,-0.007 h -0.04868 c -0.06526,0 -0.127706,0.009 -0.18662,0.0272 -0.05927,0.018 -0.112888,0.0501 -0.159455,0.0959 -0.04727,0.0459 -0.08467,0.10901 -0.112536,0.18874 -0.02787,0.0794 -0.04198,0.18238 -0.04198,0.30762 v 0.92463 c -0.0261,0.005 -0.05574,0.008 -0.08855,0.0106 -0.03246,0.002 -0.06209,0.004 -0.08855,0.004 -0.02681,0 -0.05645,-0.001 -0.0889,-0.004 -0.03246,-0.002 -0.0635,-0.006 -0.09243,-0.0106 z" />
    <path
       inkscape:connector-curvature="0"
       id="path40796"
       style="fill:#696566;fill-opacity:1;fill-rule:nonzero;stroke:none;stroke-width:0.35277778"
       d="m 18.937464,154.06899 c 0.166511,0 0.289631,-0.0603 0.369358,-0.18133 0.08008,-0.12065 0.119945,-0.28857 0.119945,-0.50376 0,-0.2152 -0.03986,-0.38242 -0.119945,-0.50201 -0.07973,-0.11959 -0.202847,-0.17956 -0.369358,-0.17956 -0.166511,0 -0.289278,0.06 -0.367947,0.17956 -0.07867,0.11959 -0.117475,0.28681 -0.117475,0.50201 0,0.21519 0.0388,0.38311 0.117475,0.50376 0.07867,0.12101 0.201436,0.18133 0.367947,0.18133 m 0,0.2861 c -0.144992,0 -0.271639,-0.0247 -0.381,-0.0741 -0.108303,-0.0497 -0.199319,-0.11783 -0.271639,-0.20461 -0.07232,-0.0871 -0.125942,-0.1898 -0.161219,-0.30833 -0.03493,-0.11853 -0.05256,-0.24659 -0.05256,-0.38417 0,-0.13794 0.01764,-0.26565 0.05256,-0.38418 0.03528,-0.11853 0.0889,-0.22119 0.161219,-0.30797 0.07232,-0.0871 0.163336,-0.15593 0.271639,-0.20673 0.109361,-0.0508 0.236008,-0.0762 0.381,-0.0762 0.144992,0 0.271639,0.0254 0.380647,0.0762 0.108656,0.0508 0.19932,0.11959 0.271992,0.20673 0.07232,0.0868 0.125589,0.18944 0.160867,0.30797 0.03528,0.11853 0.05256,0.24624 0.05256,0.38418 0,0.13758 -0.01729,0.26564 -0.05256,0.38417 -0.03528,0.11853 -0.08855,0.22119 -0.160867,0.30833 -0.07267,0.0868 -0.163336,0.15487 -0.271992,0.20461 -0.109008,0.0494 -0.235655,0.0741 -0.380647,0.0741" />
    <path
       inkscape:connector-curvature="0"
       id="path40800"
       style="fill:#696566;fill-opacity:1;fill-rule:nonzero;stroke:none;stroke-width:0.35277778"
       d="m 22.60272,152.96359 c 0.02893,-0.005 0.05927,-0.008 0.09031,-0.0109 0.03175,-0.002 0.0628,-0.004 0.09455,-0.004 0.03104,0 0.06279,0.001 0.09419,0.004 0.0314,0.002 0.06033,0.006 0.08678,0.0109 v 1.27247 c -0.0508,0.0215 -0.106539,0.0402 -0.166512,0.0557 -0.06068,0.0159 -0.123119,0.0279 -0.188383,0.0363 -0.06526,0.008 -0.130528,0.0152 -0.196144,0.0198 -0.06526,0.005 -0.126295,0.007 -0.184503,0.007 -0.193322,0 -0.367242,-0.03 -0.521758,-0.0907 -0.155223,-0.0603 -0.285398,-0.14816 -0.391584,-0.26282 -0.106539,-0.1143 -0.187678,-0.25435 -0.244828,-0.41839 -0.0568,-0.16404 -0.08537,-0.35066 -0.08537,-0.55845 0,-0.20743 0.02893,-0.39511 0.08714,-0.56338 0.05786,-0.16792 0.140759,-0.31115 0.248356,-0.42969 0.107597,-0.11818 0.235655,-0.20955 0.384175,-0.2734 0.148519,-0.0642 0.313267,-0.0963 0.494947,-0.0963 0.137583,0 0.257528,0.009 0.358775,0.0275 0.101247,0.018 0.19297,0.0427 0.275167,0.0741 -0.0046,0.0554 -0.01482,0.10689 -0.03034,0.15381 -0.01623,0.0473 -0.03493,0.0974 -0.05645,0.15064 -0.06773,-0.0219 -0.140758,-0.0409 -0.219075,-0.0579 -0.07902,-0.0173 -0.177447,-0.0254 -0.295627,-0.0254 -0.128059,0 -0.244475,0.0229 -0.349956,0.0688 -0.104775,0.0459 -0.19438,0.11289 -0.268111,0.20108 -0.07373,0.0882 -0.131233,0.1972 -0.172156,0.32632 -0.04127,0.12912 -0.06174,0.27728 -0.06174,0.44379 0,0.17181 0.02117,0.31997 0.06385,0.4445 0.04198,0.12418 0.101953,0.2279 0.178858,0.31151 0.07761,0.0832 0.168981,0.14499 0.273756,0.1845 0.105128,0.0402 0.221544,0.06 0.349956,0.06 0.07726,0 0.144638,-0.004 0.202847,-0.0123 0.05821,-0.008 0.10795,-0.019 0.148872,-0.031 z" />
    <path
       inkscape:connector-curvature="0"
       id="path40804"
       style="fill:#696566;fill-opacity:1;fill-rule:nonzero;stroke:none;stroke-width:0.35277778"
       d="m 23.483112,152.45235 c 0.02646,-0.005 0.05186,-0.008 0.0762,-0.0106 0.02399,-0.002 0.04939,-0.004 0.07585,-0.004 0.02681,0 0.05362,0.001 0.08008,0.004 0.02646,0.002 0.05045,0.006 0.07232,0.0106 0.0071,0.0363 0.01446,0.0843 0.02152,0.14323 0.0074,0.0593 0.01094,0.10936 0.01094,0.15028 0.0508,-0.0822 0.11818,-0.15346 0.201436,-0.21378 0.08325,-0.0603 0.190147,-0.0903 0.320675,-0.0903 0.01905,0 0.03916,3.5e-4 0.05997,0.001 0.02011,0.001 0.03775,0.003 0.05256,0.006 0.0046,0.0215 0.0081,0.0444 0.01058,0.0684 0.0025,0.0243 0.0035,0.0497 0.0035,0.0766 0,0.0289 -0.0018,0.0593 -0.0056,0.0907 -0.0032,0.031 -0.0074,0.0614 -0.01235,0.0907 -0.01905,-0.005 -0.03951,-0.007 -0.05997,-0.007 h -0.04868 c -0.06526,0 -0.127353,0.009 -0.18662,0.0272 -0.05927,0.018 -0.112536,0.0501 -0.159455,0.0959 -0.04727,0.0459 -0.08467,0.10901 -0.112536,0.18874 -0.02787,0.0794 -0.04198,0.18238 -0.04198,0.30762 v 0.92463 c -0.02611,0.005 -0.05574,0.008 -0.08855,0.0106 -0.03246,0.002 -0.06174,0.004 -0.08855,0.004 -0.02681,0 -0.05645,-0.001 -0.0889,-0.004 -0.03246,-0.002 -0.0635,-0.006 -0.09243,-0.0106 z" />
    <path
       inkscape:connector-curvature="0"
       id="path40808"
       style="fill:#696566;fill-opacity:1;fill-rule:nonzero;stroke:none;stroke-width:0.35277778"
       d="m 25.519698,154.06899 c 0.166511,0 0.289983,-0.0603 0.369358,-0.18133 0.08008,-0.12065 0.119945,-0.28857 0.119945,-0.50376 0,-0.2152 -0.03986,-0.38242 -0.119945,-0.50201 -0.07937,-0.11959 -0.202847,-0.17956 -0.369358,-0.17956 -0.166511,0 -0.289278,0.06 -0.367947,0.17956 -0.07832,0.11959 -0.117475,0.28681 -0.117475,0.50201 0,0.21519 0.03916,0.38311 0.117475,0.50376 0.07867,0.12101 0.201436,0.18133 0.367947,0.18133 m 0,0.2861 c -0.144992,0 -0.271639,-0.0247 -0.381,-0.0741 -0.108303,-0.0497 -0.198967,-0.11783 -0.271639,-0.20461 -0.07232,-0.0871 -0.125942,-0.1898 -0.161219,-0.30833 -0.03493,-0.11853 -0.05256,-0.24659 -0.05256,-0.38417 0,-0.13794 0.01764,-0.26565 0.05256,-0.38418 0.03528,-0.11853 0.0889,-0.22119 0.161219,-0.30797 0.07267,-0.0871 0.163336,-0.15593 0.271639,-0.20673 0.109361,-0.0508 0.236008,-0.0762 0.381,-0.0762 0.144992,0 0.271639,0.0254 0.380647,0.0762 0.108656,0.0508 0.19932,0.11959 0.271992,0.20673 0.07232,0.0868 0.125589,0.18944 0.161219,0.30797 0.03493,0.11853 0.05221,0.24624 0.05221,0.38418 0,0.13758 -0.01729,0.26564 -0.05221,0.38417 -0.03563,0.11853 -0.0889,0.22119 -0.161219,0.30833 -0.07267,0.0868 -0.163336,0.15487 -0.271992,0.20461 -0.109008,0.0494 -0.235655,0.0741 -0.380647,0.0741" />
    <path
       inkscape:connector-curvature="0"
       id="path40812"
       style="fill:#696566;fill-opacity:1;fill-rule:nonzero;stroke:none;stroke-width:0.35277778"
       d="m 26.765885,152.45235 c 0.02646,-0.005 0.0568,-0.008 0.09031,-0.0106 0.03387,-0.002 0.0628,-0.004 0.08749,-0.004 0.02646,0 0.0568,0.001 0.09031,0.004 0.03387,0.002 0.06421,0.006 0.09031,0.0106 v 1.01847 c 0,0.11606 0.01094,0.21202 0.03281,0.28822 0.02152,0.0762 0.05433,0.13617 0.09772,0.17956 0.04339,0.0434 0.09701,0.0737 0.159808,0.0903 0.0628,0.0173 0.135114,0.0254 0.217311,0.0254 0.123473,0 0.228248,-0.0131 0.315384,-0.0395 v -1.56245 c 0.02681,-0.005 0.05644,-0.008 0.0889,-0.0106 0.03245,-0.002 0.06209,-0.004 0.08855,-0.004 0.02681,0 0.05644,0.001 0.0889,0.004 0.03281,0.002 0.06244,0.006 0.0889,0.0106 v 1.80128 c -0.08467,0.0243 -0.185561,0.0473 -0.302683,0.0688 -0.117123,0.0219 -0.238478,0.0328 -0.364067,0.0328 -0.118533,0 -0.230364,-0.0106 -0.335492,-0.0307 -0.105127,-0.0205 -0.197555,-0.0621 -0.277283,-0.12523 -0.07937,-0.0628 -0.142522,-0.15099 -0.188736,-0.26459 -0.04586,-0.11324 -0.06844,-0.26317 -0.06844,-0.44944 z" />
    <path
       inkscape:connector-curvature="0"
       id="path40816"
       style="fill:#696566;fill-opacity:1;fill-rule:nonzero;stroke:none;stroke-width:0.35277778"
       d="m 29.151651,154.00732 c 0.04586,0.0169 0.09313,0.0289 0.141111,0.0363 0.04868,0.007 0.111831,0.0109 0.188736,0.0109 0.08714,0 0.166864,-0.0138 0.239536,-0.0416 0.07232,-0.0279 0.134056,-0.0705 0.186267,-0.12876 0.05186,-0.0582 0.09313,-0.13123 0.123119,-0.21943 0.03034,-0.0882 0.04551,-0.19261 0.04551,-0.31326 0,-0.19368 -0.03563,-0.34678 -0.106539,-0.46038 -0.07126,-0.11359 -0.188031,-0.17039 -0.349956,-0.17039 -0.06068,0 -0.118533,0.0109 -0.173919,0.0328 -0.05574,0.0215 -0.105481,0.0543 -0.148872,0.0977 -0.04339,0.0434 -0.07867,0.0984 -0.105128,0.16474 -0.02681,0.0663 -0.03986,0.14535 -0.03986,0.23778 z m -0.358422,-1.55504 c 0.02399,-0.005 0.04868,-0.008 0.07444,-0.0109 0.02469,-0.002 0.0508,-0.003 0.07726,-0.003 0.02434,0 0.04974,0.001 0.0762,0.003 0.02646,0.002 0.05186,0.006 0.0762,0.0109 0.0025,0.005 0.0053,0.0201 0.0092,0.0455 0.0039,0.025 0.0074,0.0526 0.01058,0.0815 0.0039,0.0293 0.0074,0.0572 0.01129,0.0832 0.0035,0.0265 0.0053,0.0437 0.0053,0.0508 0.02434,-0.0388 0.05327,-0.0759 0.08678,-0.11218 0.03422,-0.0363 0.07444,-0.0688 0.121708,-0.0981 0.04692,-0.0289 0.100189,-0.0519 0.159456,-0.0688 0.05891,-0.0169 0.124883,-0.0254 0.197555,-0.0254 0.108656,0 0.20955,0.0183 0.302683,0.0547 0.09313,0.036 0.172509,0.0921 0.239184,0.16828 0.06632,0.0762 0.118533,0.17286 0.155928,0.28998 0.03739,0.11713 0.05574,0.25577 0.05574,0.41487 0,0.31891 -0.08608,0.56868 -0.258938,0.74859 -0.172509,0.18027 -0.417337,0.26988 -0.733778,0.26988 -0.05327,0 -0.107597,-0.004 -0.163336,-0.0109 -0.05574,-0.007 -0.10407,-0.0169 -0.144992,-0.0286 v 0.8516 c -0.02893,0.005 -0.05997,0.008 -0.09243,0.0109 -0.03246,0.002 -0.06209,0.003 -0.0889,0.003 -0.02681,0 -0.05609,-7e-4 -0.08855,-0.003 -0.03281,-0.002 -0.06244,-0.006 -0.08855,-0.0109 z" />
    <path
       inkscape:connector-curvature="0"
       id="path40820"
       style="fill:#696566;fill-opacity:1;fill-rule:nonzero;stroke:none;stroke-width:0.35277778"
       d="m 33.41878,153.93123 c 0.05292,0.10407 0.08678,0.20426 0.1016,0.30092 -0.1016,0.0434 -0.205669,0.0751 -0.311503,0.0942 -0.106539,0.019 -0.221544,0.0289 -0.345016,0.0289 -0.188384,0 -0.35807,-0.0307 -0.509059,-0.0921 -0.150989,-0.0621 -0.278341,-0.14993 -0.382058,-0.26493 -0.10407,-0.11465 -0.18415,-0.254 -0.239536,-0.41875 -0.05574,-0.16404 -0.08326,-0.34925 -0.08326,-0.55421 0,-0.20814 0.02752,-0.39582 0.08326,-0.56374 0.05539,-0.16792 0.135466,-0.31115 0.239536,-0.42969 0.103717,-0.11818 0.230364,-0.20955 0.380647,-0.27375 0.149225,-0.0638 0.3175,-0.096 0.503767,-0.096 0.13723,0 0.255764,0.01 0.354894,0.0293 0.09878,0.019 0.187325,0.042 0.264584,0.0688 -0.0049,0.0554 -0.01517,0.10689 -0.03069,0.15416 -0.01552,0.0469 -0.03457,0.097 -0.05645,0.15028 -0.03563,-0.0123 -0.07126,-0.0229 -0.105127,-0.0328 -0.03351,-0.01 -0.0702,-0.018 -0.108303,-0.0254 -0.03916,-0.007 -0.08184,-0.0123 -0.128764,-0.0162 -0.04727,-0.004 -0.100894,-0.005 -0.161219,-0.005 -0.263525,0 -0.468137,0.0892 -0.614892,0.26811 -0.14605,0.17885 -0.219075,0.43603 -0.219075,0.77223 0,0.17145 0.02046,0.31997 0.06174,0.44556 0.04092,0.12594 0.09913,0.2293 0.173919,0.31185 0.07514,0.0822 0.1651,0.14358 0.269875,0.18486 0.105481,0.0413 0.223309,0.0614 0.353837,0.0614 0.101247,0 0.193322,-0.008 0.275166,-0.0254 0.0822,-0.0166 0.159456,-0.0409 0.232128,-0.0723" />
    <path
       inkscape:connector-curvature="0"
       id="path40824"
       style="fill:#696566;fill-opacity:1;fill-rule:nonzero;stroke:none;stroke-width:0.35277778"
       d="m 34.6069,154.06899 c 0.166511,0 0.289631,-0.0603 0.369358,-0.18133 0.08008,-0.12065 0.119592,-0.28857 0.119592,-0.50376 0,-0.2152 -0.03951,-0.38242 -0.119592,-0.50201 -0.07973,-0.11959 -0.202847,-0.17956 -0.369358,-0.17956 -0.166511,0 -0.289278,0.06 -0.367947,0.17956 -0.07867,0.11959 -0.117475,0.28681 -0.117475,0.50201 0,0.21519 0.0388,0.38311 0.117475,0.50376 0.07867,0.12101 0.201436,0.18133 0.367947,0.18133 m 0,0.2861 c -0.144992,0 -0.271992,-0.0247 -0.381,-0.0741 -0.108303,-0.0497 -0.199319,-0.11783 -0.271639,-0.20461 -0.07267,-0.0871 -0.125942,-0.1898 -0.161219,-0.30833 -0.03493,-0.11853 -0.05256,-0.24659 -0.05256,-0.38417 0,-0.13794 0.01764,-0.26565 0.05256,-0.38418 0.03528,-0.11853 0.08855,-0.22119 0.161219,-0.30797 0.07232,-0.0871 0.163336,-0.15593 0.271639,-0.20673 0.109008,-0.0508 0.236008,-0.0762 0.381,-0.0762 0.144639,0 0.271639,0.0254 0.380647,0.0762 0.108303,0.0508 0.19932,0.11959 0.271992,0.20673 0.07232,0.0868 0.125589,0.18944 0.160867,0.30797 0.03493,0.11853 0.05256,0.24624 0.05256,0.38418 0,0.13758 -0.01764,0.26564 -0.05256,0.38417 -0.03528,0.11853 -0.08855,0.22119 -0.160867,0.30833 -0.07267,0.0868 -0.163689,0.15487 -0.271992,0.20461 -0.109008,0.0494 -0.236008,0.0741 -0.380647,0.0741" />
    <path
       inkscape:connector-curvature="0"
       id="path40828"
       style="fill:#696566;fill-opacity:1;fill-rule:nonzero;stroke:none;stroke-width:0.35277778"
       d="m 35.875489,152.45235 c 0.02646,-0.005 0.05221,-0.008 0.07796,-0.0106 0.0254,-0.002 0.05115,-0.004 0.07796,-0.004 0.02646,0 0.0515,0.001 0.07408,0.004 0.02328,0.002 0.04798,0.006 0.07444,0.0106 0.0071,0.0363 0.01446,0.0843 0.02152,0.14323 0.0074,0.0593 0.01094,0.10936 0.01094,0.15028 0.02152,-0.0434 0.04868,-0.085 0.08149,-0.12488 0.03281,-0.0399 0.07126,-0.0755 0.116064,-0.10689 0.0448,-0.0314 0.0956,-0.0568 0.153811,-0.0762 0.05821,-0.0194 0.122062,-0.0289 0.192264,-0.0289 0.144992,0 0.257175,0.0296 0.335492,0.0885 0.07867,0.0596 0.138289,0.14216 0.179211,0.24835 0.02434,-0.0409 0.05362,-0.0822 0.0889,-0.12312 0.03493,-0.0409 0.07408,-0.0773 0.117475,-0.10865 0.04375,-0.0314 0.09313,-0.0568 0.148872,-0.0762 0.05539,-0.0194 0.118181,-0.0289 0.188384,-0.0289 0.215194,0 0.371827,0.0603 0.469547,0.18133 0.09807,0.121 0.147108,0.2995 0.147108,0.53622 v 1.18533 c -0.02646,0.005 -0.0568,0.008 -0.09102,0.0106 -0.03387,0.002 -0.06385,0.004 -0.09066,0.004 -0.02646,0 -0.05609,-0.001 -0.0889,-0.004 -0.0321,-0.002 -0.06174,-0.006 -0.0889,-0.0106 v -1.0802 c 0,-0.16687 -0.02505,-0.29175 -0.07585,-0.37501 -0.0508,-0.0836 -0.134055,-0.12488 -0.250119,-0.12488 -0.123472,0 -0.222956,0.0445 -0.298803,0.1337 -0.0762,0.0896 -0.1143,0.22119 -0.1143,0.39511 v 1.05128 c -0.02681,0.005 -0.05644,0.008 -0.08855,0.0106 -0.03281,0.002 -0.06244,0.004 -0.0889,0.004 -0.02681,0 -0.05644,-0.001 -0.0889,-0.004 -0.03281,-0.002 -0.06244,-0.006 -0.0889,-0.0106 v -1.10525 c 0,-0.16228 -0.02399,-0.28363 -0.07267,-0.36442 -0.04833,-0.0808 -0.125589,-0.12171 -0.231775,-0.12171 -0.06068,0 -0.117475,0.0138 -0.170039,0.0402 -0.05362,0.0261 -0.09984,0.0663 -0.140053,0.11959 -0.03951,0.0533 -0.07126,0.1203 -0.09384,0.20108 -0.02328,0.0808 -0.03493,0.17463 -0.03493,0.28081 v 0.94968 c -0.02611,0.005 -0.05574,0.008 -0.08855,0.0106 -0.03246,0.002 -0.06209,0.004 -0.08855,0.004 -0.02681,0 -0.05715,-10e-4 -0.09102,-0.004 -0.03351,-0.002 -0.06385,-0.006 -0.09031,-0.0106 z" />
    <path
       inkscape:connector-curvature="0"
       id="path40832"
       style="fill:#696566;fill-opacity:1;fill-rule:nonzero;stroke:none;stroke-width:0.35277778"
       d="m 39.264273,154.00732 c 0.04586,0.0169 0.09313,0.0289 0.141111,0.0363 0.04868,0.007 0.111831,0.0109 0.188736,0.0109 0.08714,0 0.166864,-0.0138 0.239536,-0.0416 0.07232,-0.0279 0.134409,-0.0705 0.186267,-0.12876 0.05186,-0.0582 0.09313,-0.13123 0.123119,-0.21943 0.03034,-0.0882 0.04551,-0.19261 0.04551,-0.31326 0,-0.19368 -0.03563,-0.34678 -0.106539,-0.46038 -0.07126,-0.11359 -0.188031,-0.17039 -0.349956,-0.17039 -0.06068,0 -0.118533,0.0109 -0.173919,0.0328 -0.05574,0.0215 -0.105481,0.0543 -0.148872,0.0977 -0.04339,0.0434 -0.07867,0.0984 -0.105128,0.16474 -0.02681,0.0663 -0.03986,0.14535 -0.03986,0.23778 z m -0.358422,-1.55504 c 0.02399,-0.005 0.04868,-0.008 0.07444,-0.0109 0.02469,-0.002 0.0508,-0.003 0.07726,-0.003 0.02434,0 0.04974,0.001 0.0762,0.003 0.02646,0.002 0.05186,0.006 0.0762,0.0109 0.0025,0.005 0.0053,0.0201 0.0092,0.0455 0.0039,0.025 0.0074,0.0526 0.01058,0.0815 0.0039,0.0293 0.0074,0.0572 0.01129,0.0832 0.0035,0.0265 0.0053,0.0437 0.0053,0.0508 0.02434,-0.0388 0.05327,-0.0759 0.08678,-0.11218 0.03422,-0.0363 0.07444,-0.0688 0.121708,-0.0981 0.04692,-0.0289 0.100189,-0.0519 0.159456,-0.0688 0.05891,-0.0169 0.124883,-0.0254 0.197555,-0.0254 0.108656,0 0.20955,0.0183 0.302683,0.0547 0.09278,0.036 0.172509,0.0921 0.239184,0.16828 0.06632,0.0762 0.118533,0.17286 0.155928,0.28998 0.03739,0.11713 0.05574,0.25577 0.05574,0.41487 0,0.31891 -0.08608,0.56868 -0.258938,0.74859 -0.172509,0.18027 -0.417337,0.26988 -0.733778,0.26988 -0.05327,0 -0.107597,-0.004 -0.163336,-0.0109 -0.05574,-0.007 -0.10407,-0.0169 -0.144992,-0.0286 v 0.8516 c -0.02893,0.005 -0.05997,0.008 -0.09243,0.0109 -0.03246,0.002 -0.06209,0.003 -0.0889,0.003 -0.02681,0 -0.05609,-7e-4 -0.08855,-0.003 -0.03281,-0.002 -0.06244,-0.006 -0.08855,-0.0109 z" />
    <path
       inkscape:connector-curvature="0"
       id="path40836"
       style="fill:#696566;fill-opacity:1;fill-rule:nonzero;stroke:none;stroke-width:0.35277778"
       d="m 41.962176,153.43822 c -0.03634,-0.005 -0.0822,-0.01 -0.137583,-0.0145 -0.05574,-0.005 -0.102659,-0.007 -0.141817,-0.007 -0.149578,0 -0.263878,0.0279 -0.342194,0.0833 -0.07902,0.0554 -0.117828,0.1404 -0.117828,0.25364 0,0.0723 0.01305,0.12947 0.03951,0.17004 0.02681,0.0416 0.05997,0.0727 0.09984,0.0945 0.04022,0.0219 0.08431,0.0353 0.132292,0.0399 0.04868,0.005 0.09454,0.007 0.137936,0.007 0.05539,0 0.112889,-0.003 0.172155,-0.009 0.05927,-0.006 0.111831,-0.0148 0.157692,-0.0272 z m 0,-0.35172 c 0,-0.14217 -0.03634,-0.2413 -0.108656,-0.29704 -0.07267,-0.0554 -0.177447,-0.0832 -0.315736,-0.0832 -0.08431,0 -0.163336,0.006 -0.237066,0.0198 -0.07373,0.0134 -0.145345,0.031 -0.215548,0.0529 -0.04621,-0.0797 -0.06914,-0.17533 -0.06914,-0.28681 0.0822,-0.0265 0.172508,-0.0469 0.271992,-0.0614 0.09913,-0.0145 0.19438,-0.0215 0.286455,-0.0215 0.2413,0 0.424745,0.055 0.550686,0.16474 0.125589,0.11007 0.188736,0.2854 0.188736,0.52741 v 1.16346 c -0.08467,0.0194 -0.187325,0.0392 -0.308327,0.0596 -0.121003,0.0205 -0.244123,0.031 -0.369711,0.031 -0.118181,0 -0.225425,-0.0113 -0.320675,-0.0328 -0.0956,-0.0219 -0.176389,-0.0568 -0.243064,-0.10512 -0.06632,-0.0483 -0.117475,-0.10972 -0.153811,-0.18486 -0.03598,-0.0748 -0.05468,-0.16545 -0.05468,-0.27164 0,-0.10407 0.02152,-0.19508 0.0635,-0.27375 0.04233,-0.0787 0.100189,-0.14358 0.172508,-0.1958 0.07232,-0.0519 0.155928,-0.0903 0.249767,-0.11571 0.09454,-0.0254 0.193675,-0.0384 0.297392,-0.0384 0.07726,0 0.140758,0.002 0.1905,0.006 0.04904,0.004 0.09066,0.008 0.124883,0.013 z" />
    <path
       inkscape:connector-curvature="0"
       id="path40840"
       style="fill:#696566;fill-opacity:1;fill-rule:nonzero;stroke:none;stroke-width:0.35277778"
       d="m 42.78891,152.45235 c 0.02646,-0.005 0.05256,-0.008 0.07796,-0.0106 0.0254,-0.002 0.0515,-0.004 0.07796,-0.004 0.02646,0 0.0515,0.001 0.07408,0.004 0.02328,0.002 0.04798,0.006 0.07444,0.0106 0.0071,0.0363 0.01446,0.0854 0.02152,0.14676 0.0074,0.0617 0.01094,0.11324 0.01094,0.15416 0.02399,-0.0409 0.05503,-0.0822 0.09278,-0.12312 0.0374,-0.0409 0.08008,-0.078 0.128059,-0.11077 0.04868,-0.0325 0.104069,-0.0589 0.167216,-0.0794 0.0628,-0.0208 0.131586,-0.031 0.206728,-0.031 0.212372,0 0.369358,0.0607 0.470958,0.18274 0.1016,0.12206 0.1524,0.30268 0.1524,0.54186 v 1.17828 c -0.02646,0.005 -0.0568,0.008 -0.09066,0.0106 -0.03422,0.002 -0.06421,0.004 -0.09102,0.004 -0.02646,0 -0.05574,-0.001 -0.08855,-0.004 -0.03246,-0.002 -0.06209,-0.006 -0.0889,-0.0106 v -1.0802 c 0,-0.17145 -0.02646,-0.29775 -0.07937,-0.37853 -0.05327,-0.0811 -0.138289,-0.12136 -0.254,-0.12136 -0.06773,0 -0.131586,0.0116 -0.191911,0.036 -0.06068,0.024 -0.113595,0.0617 -0.159456,0.11254 -0.04621,0.0505 -0.0829,0.11642 -0.110772,0.19755 -0.02787,0.0808 -0.04198,0.17816 -0.04198,0.29175 v 0.94227 c -0.0261,0.005 -0.05574,0.008 -0.08855,0.0106 -0.03246,0.002 -0.06174,0.004 -0.08855,0.004 -0.02681,0 -0.05715,-0.001 -0.09066,-0.004 -0.03387,-0.002 -0.06421,-0.006 -0.09066,-0.0106 z" />
    <path
       inkscape:connector-curvature="0"
       id="path40844"
       style="fill:#696566;fill-opacity:1;fill-rule:nonzero;stroke:none;stroke-width:0.35277778"
       d="m 45.43111,154.3154 c -0.0194,0 -0.03881,7.1e-4 -0.05997,0.002 -0.02011,0.001 -0.04022,0.002 -0.05962,0.002 -0.02399,0 -0.04939,-7.1e-4 -0.07585,-0.002 -0.02681,-0.001 -0.04833,-0.003 -0.06526,-0.005 l -0.616303,-1.85949 c 0.03104,-0.005 0.06385,-0.008 0.09807,-0.009 0.03316,-10e-4 0.06491,-0.002 0.09384,-0.002 0.0314,0 0.06667,7.1e-4 0.105127,0.002 0.03881,0.001 0.07161,0.004 0.09807,0.009 l 0.514702,1.72896 0.532695,-1.72896 c 0.05045,-0.007 0.110066,-0.0109 0.1778,-0.0109 0.02646,0 0.0568,7.1e-4 0.09031,0.002 0.03387,0.001 0.06773,0.004 0.1016,0.009 l -0.721431,2.23661 c -0.03351,0.0988 -0.06879,0.18239 -0.105127,0.24977 -0.03598,0.0677 -0.07691,0.12241 -0.122767,0.16333 -0.04657,0.0409 -0.09737,0.0699 -0.154164,0.0871 -0.0568,0.0166 -0.122767,0.025 -0.197908,0.025 -0.05539,0 -0.11042,-0.004 -0.164748,-0.0127 -0.05433,-0.009 -0.101952,-0.0187 -0.143227,-0.031 0,-0.055 0.0049,-0.10477 0.01482,-0.14852 0.0095,-0.0434 0.02399,-0.0868 0.04339,-0.13017 0.02152,0.007 0.05115,0.0152 0.08855,0.0236 0.03775,0.008 0.07796,0.0123 0.121356,0.0123 0.03175,0 0.06138,-0.003 0.08925,-0.009 0.02752,-0.006 0.05362,-0.0183 0.07796,-0.0363 0.02399,-0.018 0.04621,-0.0441 0.06668,-0.078 0.02046,-0.0335 0.04057,-0.0797 0.06032,-0.13758 z" />
  </g>
</svg>
